<?xml version="1.0" encoding="UTF-8" standalone="no"?>
<!DOCTYPE svg PUBLIC "-//W3C//DTD SVG 1.1//EN"
 "http://www.w3.org/Graphics/SVG/1.1/DTD/svg11.dtd">
<!-- Generated by graphviz version 10.0.1 (20240210.2158)
 -->
<!-- Title: dependency&#45;cruiser output Pages: 1 -->
<svg width="779pt" height="989pt"
 viewBox="0.00 0.00 779.12 989.00" xmlns="http://www.w3.org/2000/svg" xmlns:xlink="http://www.w3.org/1999/xlink">
<g id="graph0" class="graph" transform="scale(1 1) rotate(0) translate(4 985)">
<title>dependency&#45;cruiser output</title>
<polygon fill="white" stroke="none" points="-4,4 -4,-985 775.12,-985 775.12,4 -4,4"/>
<g id="clust1" class="cluster">
<title>cluster_src</title>
<path fill="#ffffff" stroke="black" stroke-width="2" d="M20,-8C20,-8 756.12,-8 756.12,-8 762.12,-8 768.12,-14 768.12,-20 768.12,-20 768.12,-961 768.12,-961 768.12,-967 762.12,-973 756.12,-973 756.12,-973 20,-973 20,-973 14,-973 8,-967 8,-961 8,-961 8,-20 8,-20 8,-14 14,-8 20,-8"/>
<text text-anchor="middle" x="388.06" y="-960.45" font-family="Helvetica,sans-Serif" font-weight="bold" font-size="9.00">src</text>
</g>
<g id="clust2" class="cluster">
<title>cluster_src/Authorization</title>
<path fill="#ffffff" stroke="black" stroke-width="2" d="M271.88,-732C271.88,-732 748.12,-732 748.12,-732 754.12,-732 760.12,-738 760.12,-744 760.12,-744 760.12,-934 760.12,-934 760.12,-940 754.12,-946 748.12,-946 748.12,-946 271.88,-946 271.88,-946 265.88,-946 259.88,-940 259.88,-934 259.88,-934 259.88,-744 259.88,-744 259.88,-738 265.88,-732 271.88,-732"/>
<text text-anchor="middle" x="510" y="-933.45" font-family="Helvetica,sans-Serif" font-weight="bold" font-size="9.00">Authorization</text>
</g>
<g id="clust3" class="cluster">
<title>cluster_src/Authorization/Authorization&#45;Forms</title>
<path fill="#ffffff" stroke="black" stroke-width="2" d="M279.88,-740C279.88,-740 610.12,-740 610.12,-740 616.12,-740 622.12,-746 622.12,-752 622.12,-752 622.12,-814 622.12,-814 622.12,-820 616.12,-826 610.12,-826 610.12,-826 279.88,-826 279.88,-826 273.88,-826 267.88,-820 267.88,-814 267.88,-814 267.88,-752 267.88,-752 267.88,-746 273.88,-740 279.88,-740"/>
<text text-anchor="middle" x="445" y="-813.45" font-family="Helvetica,sans-Serif" font-weight="bold" font-size="9.00">Authorization&#45;Forms</text>
</g>
<g id="clust4" class="cluster">
<title>cluster_src/Authorization/UI&#45;Components</title>
<path fill="#ffffff" stroke="black" stroke-width="2" d="M683.12,-740C683.12,-740 740.12,-740 740.12,-740 746.12,-740 752.12,-746 752.12,-752 752.12,-752 752.12,-907 752.12,-907 752.12,-913 746.12,-919 740.12,-919 740.12,-919 683.12,-919 683.12,-919 677.12,-919 671.12,-913 671.12,-907 671.12,-907 671.12,-752 671.12,-752 671.12,-746 677.12,-740 683.12,-740"/>
<text text-anchor="middle" x="711.62" y="-906.45" font-family="Helvetica,sans-Serif" font-weight="bold" font-size="9.00">UI&#45;Components</text>
</g>
<g id="clust5" class="cluster">
<title>cluster_src/Schema</title>
<path fill="#ffffff" stroke="black" stroke-width="2" d="M28,-57C28,-57 74,-57 74,-57 80,-57 86,-63 86,-69 86,-69 86,-100 86,-100 86,-106 80,-112 74,-112 74,-112 28,-112 28,-112 22,-112 16,-106 16,-100 16,-100 16,-69 16,-69 16,-63 22,-57 28,-57"/>
<text text-anchor="middle" x="51" y="-99.45" font-family="Helvetica,sans-Serif" font-weight="bold" font-size="9.00">Schema</text>
</g>
<g id="clust6" class="cluster">
<title>cluster_src/components</title>
<path fill="#ffffff" stroke="black" stroke-width="2" d="M390.62,-16C390.62,-16 635.12,-16 635.12,-16 641.12,-16 647.12,-22 647.12,-28 647.12,-28 647.12,-712 647.12,-712 647.12,-718 641.12,-724 635.12,-724 635.12,-724 390.62,-724 390.62,-724 384.62,-724 378.62,-718 378.62,-712 378.62,-712 378.62,-28 378.62,-28 378.62,-22 384.62,-16 390.62,-16"/>
<text text-anchor="middle" x="512.88" y="-711.45" font-family="Helvetica,sans-Serif" font-weight="bold" font-size="9.00">components</text>
</g>
<g id="clust7" class="cluster">
<title>cluster_src/components/ui</title>
<path fill="#ffffff" stroke="black" stroke-width="2" d="M398.62,-52C398.62,-52 627.12,-52 627.12,-52 633.12,-52 639.12,-58 639.12,-64 639.12,-64 639.12,-685 639.12,-685 639.12,-691 633.12,-697 627.12,-697 627.12,-697 398.62,-697 398.62,-697 392.62,-697 386.62,-691 386.62,-685 386.62,-685 386.62,-64 386.62,-64 386.62,-58 392.62,-52 398.62,-52"/>
<text text-anchor="middle" x="512.88" y="-684.45" font-family="Helvetica,sans-Serif" font-weight="bold" font-size="9.00">ui</text>
</g>
<g id="clust8" class="cluster">
<title>cluster_src/components/ui/chat</title>
<path fill="#ffffff" stroke="black" stroke-width="2" d="M406.62,-60C406.62,-60 619.12,-60 619.12,-60 625.12,-60 631.12,-66 631.12,-72 631.12,-72 631.12,-165 631.12,-165 631.12,-171 625.12,-177 619.12,-177 619.12,-177 406.62,-177 406.62,-177 400.62,-177 394.62,-171 394.62,-165 394.62,-165 394.62,-72 394.62,-72 394.62,-66 400.62,-60 406.62,-60"/>
<text text-anchor="middle" x="512.88" y="-164.45" font-family="Helvetica,sans-Serif" font-weight="bold" font-size="9.00">chat</text>
</g>
<g id="clust9" class="cluster">
<title>cluster_src/lib</title>
<path fill="#ffffff" stroke="black" stroke-width="2" d="M28,-141C28,-141 74,-141 74,-141 80,-141 86,-147 86,-153 86,-153 86,-184 86,-184 86,-190 80,-196 74,-196 74,-196 28,-196 28,-196 22,-196 16,-190 16,-184 16,-184 16,-153 16,-153 16,-147 22,-141 28,-141"/>
<text text-anchor="middle" x="51" y="-183.45" font-family="Helvetica,sans-Serif" font-weight="bold" font-size="9.00">lib</text>
</g>
<!-- src/AccordionSection.jsx -->
<g id="node1" class="node">
<title>src/AccordionSection.jsx</title>
<g id="a_node1"><a xlink:href="src/AccordionSection.jsx" xlink:title="AccordionSection.jsx">
<path fill="#ffff77" stroke="black" d="M361.21,-428.62C361.21,-428.62 273.29,-428.62 273.29,-428.62 270.08,-428.62 266.88,-425.42 266.88,-422.21 266.88,-422.21 266.88,-415.79 266.88,-415.79 266.88,-412.58 270.08,-409.38 273.29,-409.38 273.29,-409.38 361.21,-409.38 361.21,-409.38 364.42,-409.38 367.62,-412.58 367.62,-415.79 367.62,-415.79 367.62,-422.21 367.62,-422.21 367.62,-425.42 364.42,-428.62 361.21,-428.62"/>
<text text-anchor="start" x="274.88" y="-416.07" font-family="Helvetica,sans-Serif" font-size="9.00">AccordionSection.jsx</text>
</a>
</g>
</g>
<!-- src/components/ui/accordion.jsx -->
<g id="node2" class="node">
<title>src/components/ui/accordion.jsx</title>
<g id="a_node2"><a xlink:href="src/components/ui/accordion.jsx" xlink:title="accordion.jsx">
<path fill="#ffff77" stroke="black" d="M483.46,-328.62C483.46,-328.62 426.29,-328.62 426.29,-328.62 423.08,-328.62 419.88,-325.42 419.88,-322.21 419.88,-322.21 419.88,-315.79 419.88,-315.79 419.88,-312.58 423.08,-309.38 426.29,-309.38 426.29,-309.38 483.46,-309.38 483.46,-309.38 486.67,-309.38 489.88,-312.58 489.88,-315.79 489.88,-315.79 489.88,-322.21 489.88,-322.21 489.88,-325.42 486.67,-328.62 483.46,-328.62"/>
<text text-anchor="start" x="427.88" y="-316.07" font-family="Helvetica,sans-Serif" font-size="9.00">accordion.jsx</text>
</a>
</g>
</g>
<!-- src/AccordionSection.jsx&#45;&gt;src/components/ui/accordion.jsx -->
<g id="edge1" class="edge">
<title>src/AccordionSection.jsx&#45;&gt;src/components/ui/accordion.jsx</title>
<path fill="none" stroke="#000000" stroke-width="2" stroke-opacity="0.200000" d="M365.26,-408.98C367.23,-407.53 369.04,-405.88 370.62,-404 390.87,-380.11 357.42,-357.04 378.62,-334 386.9,-325.01 398.91,-320.53 410.91,-318.5"/>
<polygon fill="#000000" fill-opacity="0.200000" stroke="#000000" stroke-width="2" stroke-opacity="0.200000" points="410.9,-320.61 416.59,-317.79 410.38,-316.45 410.9,-320.61"/>
</g>
<!-- src/App.jsx -->
<g id="node3" class="node">
<title>src/App.jsx</title>
<g id="a_node3"><a xlink:href="src/App.jsx" xlink:title="App.jsx">
<path fill="#ffff77" stroke="black" d="M145.96,-234.62C145.96,-234.62 104.79,-234.62 104.79,-234.62 101.58,-234.62 98.38,-231.42 98.38,-228.21 98.38,-228.21 98.38,-221.79 98.38,-221.79 98.38,-218.58 101.58,-215.38 104.79,-215.38 104.79,-215.38 145.96,-215.38 145.96,-215.38 149.17,-215.38 152.38,-218.58 152.38,-221.79 152.38,-221.79 152.38,-228.21 152.38,-228.21 152.38,-231.42 149.17,-234.62 145.96,-234.62"/>
<text text-anchor="start" x="110.75" y="-222.07" font-family="Helvetica,sans-Serif" font-size="9.00">App.jsx</text>
</a>
</g>
</g>
<!-- src/Cart.jsx -->
<g id="node4" class="node">
<title>src/Cart.jsx</title>
<g id="a_node4"><a xlink:href="src/Cart.jsx" xlink:title="Cart.jsx">
<path fill="#ffff77" stroke="black" d="M228.96,-281.62C228.96,-281.62 187.79,-281.62 187.79,-281.62 184.58,-281.62 181.38,-278.42 181.38,-275.21 181.38,-275.21 181.38,-268.79 181.38,-268.79 181.38,-265.58 184.58,-262.38 187.79,-262.38 187.79,-262.38 228.96,-262.38 228.96,-262.38 232.17,-262.38 235.38,-265.58 235.38,-268.79 235.38,-268.79 235.38,-275.21 235.38,-275.21 235.38,-278.42 232.17,-281.62 228.96,-281.62"/>
<text text-anchor="start" x="193" y="-269.07" font-family="Helvetica,sans-Serif" font-size="9.00">Cart.jsx</text>
</a>
</g>
</g>
<!-- src/App.jsx&#45;&gt;src/Cart.jsx -->
<g id="edge2" class="edge">
<title>src/App.jsx&#45;&gt;src/Cart.jsx</title>
<path fill="none" stroke="#000000" stroke-width="2" stroke-opacity="0.200000" d="M146.09,-234.96C148.48,-236.5 150.8,-238.19 152.88,-240 160.05,-246.25 158.2,-251.38 165.88,-257 168.16,-258.68 170.65,-260.18 173.24,-261.53"/>
<polygon fill="#000000" fill-opacity="0.200000" stroke="#000000" stroke-width="2" stroke-opacity="0.200000" points="172.11,-263.32 178.45,-263.87 173.84,-259.49 172.11,-263.32"/>
</g>
<!-- src/Chat.jsx -->
<g id="node5" class="node">
<title>src/Chat.jsx</title>
<g id="a_node5"><a xlink:href="src/Chat.jsx" xlink:title="Chat.jsx">
<path fill="#ffff77" stroke="black" d="M228.96,-88.62C228.96,-88.62 187.79,-88.62 187.79,-88.62 184.58,-88.62 181.38,-85.42 181.38,-82.21 181.38,-82.21 181.38,-75.79 181.38,-75.79 181.38,-72.58 184.58,-69.38 187.79,-69.38 187.79,-69.38 228.96,-69.38 228.96,-69.38 232.17,-69.38 235.38,-72.58 235.38,-75.79 235.38,-75.79 235.38,-82.21 235.38,-82.21 235.38,-85.42 232.17,-88.62 228.96,-88.62"/>
<text text-anchor="start" x="191.88" y="-76.08" font-family="Helvetica,sans-Serif" font-size="9.00">Chat.jsx</text>
</a>
</g>
</g>
<!-- src/App.jsx&#45;&gt;src/Chat.jsx -->
<g id="edge3" class="edge">
<title>src/App.jsx&#45;&gt;src/Chat.jsx</title>
<path fill="none" stroke="#000000" stroke-width="2" stroke-opacity="0.200000" d="M129.61,-215.09C135.53,-197.64 149.03,-160.56 165.88,-132 173.52,-119.04 183.97,-105.71 192.47,-95.66"/>
<polygon fill="#000000" fill-opacity="0.200000" stroke="#000000" stroke-width="2" stroke-opacity="0.200000" points="193.94,-97.18 196.27,-91.27 190.76,-94.43 193.94,-97.18"/>
</g>
<!-- src/HomePage.jsx -->
<g id="node6" class="node">
<title>src/HomePage.jsx</title>
<g id="a_node6"><a xlink:href="src/HomePage.jsx" xlink:title="HomePage.jsx">
<path fill="#ffff77" stroke="black" d="M240.33,-327.62C240.33,-327.62 176.42,-327.62 176.42,-327.62 173.21,-327.62 170,-324.42 170,-321.21 170,-321.21 170,-314.79 170,-314.79 170,-311.58 173.21,-308.38 176.42,-308.38 176.42,-308.38 240.33,-308.38 240.33,-308.38 243.54,-308.38 246.75,-311.58 246.75,-314.79 246.75,-314.79 246.75,-321.21 246.75,-321.21 246.75,-324.42 243.54,-327.62 240.33,-327.62"/>
<text text-anchor="start" x="178" y="-315.07" font-family="Helvetica,sans-Serif" font-size="9.00">HomePage.jsx</text>
</a>
</g>
</g>
<!-- src/App.jsx&#45;&gt;src/HomePage.jsx -->
<g id="edge4" class="edge">
<title>src/App.jsx&#45;&gt;src/HomePage.jsx</title>
<path fill="none" stroke="#000000" stroke-width="2" stroke-opacity="0.200000" d="M147.86,-235.04C149.73,-236.51 151.45,-238.16 152.88,-240 166.43,-257.46 153.31,-269.82 165.88,-288 169.86,-293.76 175.31,-298.81 180.96,-303.05"/>
<polygon fill="#000000" fill-opacity="0.200000" stroke="#000000" stroke-width="2" stroke-opacity="0.200000" points="179.5,-304.59 185.63,-306.26 181.88,-301.13 179.5,-304.59"/>
</g>
<!-- src/Listings.jsx -->
<g id="node7" class="node">
<title>src/Listings.jsx</title>
<g id="a_node7"><a xlink:href="src/Listings.jsx" xlink:title="Listings.jsx">
<path fill="#ffff77" stroke="black" d="M233.21,-188.62C233.21,-188.62 183.54,-188.62 183.54,-188.62 180.33,-188.62 177.12,-185.42 177.12,-182.21 177.12,-182.21 177.12,-175.79 177.12,-175.79 177.12,-172.58 180.33,-169.38 183.54,-169.38 183.54,-169.38 233.21,-169.38 233.21,-169.38 236.42,-169.38 239.62,-172.58 239.62,-175.79 239.62,-175.79 239.62,-182.21 239.62,-182.21 239.62,-185.42 236.42,-188.62 233.21,-188.62"/>
<text text-anchor="start" x="185.12" y="-176.07" font-family="Helvetica,sans-Serif" font-size="9.00">Listings.jsx</text>
</a>
</g>
</g>
<!-- src/App.jsx&#45;&gt;src/Listings.jsx -->
<g id="edge5" class="edge">
<title>src/App.jsx&#45;&gt;src/Listings.jsx</title>
<path fill="none" stroke="#000000" stroke-width="2" stroke-opacity="0.200000" d="M137.11,-215.03C144.7,-208.38 155.35,-199.83 165.88,-194 166.85,-193.46 167.86,-192.93 168.88,-192.41"/>
<polygon fill="#000000" fill-opacity="0.200000" stroke="#000000" stroke-width="2" stroke-opacity="0.200000" points="169.62,-194.38 174.2,-189.98 167.87,-190.56 169.62,-194.38"/>
</g>
<!-- src/Login.jsx -->
<g id="node8" class="node">
<title>src/Login.jsx</title>
<g id="a_node8"><a xlink:href="src/Login.jsx" xlink:title="Login.jsx">
<path fill="#ffff77" stroke="black" d="M228.96,-358.62C228.96,-358.62 187.79,-358.62 187.79,-358.62 184.58,-358.62 181.38,-355.42 181.38,-352.21 181.38,-352.21 181.38,-345.79 181.38,-345.79 181.38,-342.58 184.58,-339.38 187.79,-339.38 187.79,-339.38 228.96,-339.38 228.96,-339.38 232.17,-339.38 235.38,-342.58 235.38,-345.79 235.38,-345.79 235.38,-352.21 235.38,-352.21 235.38,-355.42 232.17,-358.62 228.96,-358.62"/>
<text text-anchor="start" x="190" y="-346.07" font-family="Helvetica,sans-Serif" font-size="9.00">Login.jsx</text>
</a>
</g>
</g>
<!-- src/App.jsx&#45;&gt;src/Login.jsx -->
<g id="edge6" class="edge">
<title>src/App.jsx&#45;&gt;src/Login.jsx</title>
<path fill="none" stroke="#000000" stroke-width="2" stroke-opacity="0.200000" d="M148.11,-234.86C149.93,-236.37 151.57,-238.08 152.88,-240 176.57,-274.89 139.33,-301.22 165.88,-334 167.92,-336.53 170.44,-338.63 173.2,-340.38"/>
<polygon fill="#000000" fill-opacity="0.200000" stroke="#000000" stroke-width="2" stroke-opacity="0.200000" points="171.95,-342.11 178.26,-342.89 173.81,-338.34 171.95,-342.11"/>
</g>
<!-- src/ProductDetail.jsx -->
<g id="node9" class="node">
<title>src/ProductDetail.jsx</title>
<g id="a_node9"><a xlink:href="src/ProductDetail.jsx" xlink:title="ProductDetail.jsx">
<path fill="#ffff77" stroke="black" d="M244.46,-157.62C244.46,-157.62 172.29,-157.62 172.29,-157.62 169.08,-157.62 165.88,-154.42 165.88,-151.21 165.88,-151.21 165.88,-144.79 165.88,-144.79 165.88,-141.58 169.08,-138.38 172.29,-138.38 172.29,-138.38 244.46,-138.38 244.46,-138.38 247.67,-138.38 250.88,-141.58 250.88,-144.79 250.88,-144.79 250.88,-151.21 250.88,-151.21 250.88,-154.42 247.67,-157.62 244.46,-157.62"/>
<text text-anchor="start" x="173.88" y="-145.07" font-family="Helvetica,sans-Serif" font-size="9.00">ProductDetail.jsx</text>
</a>
</g>
</g>
<!-- src/App.jsx&#45;&gt;src/ProductDetail.jsx -->
<g id="edge7" class="edge">
<title>src/App.jsx&#45;&gt;src/ProductDetail.jsx</title>
<path fill="none" stroke="#000000" stroke-width="2" stroke-opacity="0.200000" d="M130.2,-215.19C135.97,-201.63 148.14,-177.2 165.88,-163 166.02,-162.88 166.18,-162.76 166.33,-162.64"/>
<polygon fill="#000000" fill-opacity="0.200000" stroke="#000000" stroke-width="2" stroke-opacity="0.200000" points="167.23,-164.56 171.16,-159.56 164.97,-161.02 167.23,-164.56"/>
</g>
<!-- src/Products.jsx -->
<g id="node10" class="node">
<title>src/Products.jsx</title>
<g id="a_node10"><a xlink:href="src/Products.jsx" xlink:title="Products.jsx">
<path fill="#ffff77" stroke="black" d="M235.08,-219.62C235.08,-219.62 181.67,-219.62 181.67,-219.62 178.46,-219.62 175.25,-216.42 175.25,-213.21 175.25,-213.21 175.25,-206.79 175.25,-206.79 175.25,-203.58 178.46,-200.38 181.67,-200.38 181.67,-200.38 235.08,-200.38 235.08,-200.38 238.29,-200.38 241.5,-203.58 241.5,-206.79 241.5,-206.79 241.5,-213.21 241.5,-213.21 241.5,-216.42 238.29,-219.62 235.08,-219.62"/>
<text text-anchor="start" x="183.25" y="-207.07" font-family="Helvetica,sans-Serif" font-size="9.00">Products.jsx</text>
</a>
</g>
</g>
<!-- src/App.jsx&#45;&gt;src/Products.jsx -->
<g id="edge8" class="edge">
<title>src/App.jsx&#45;&gt;src/Products.jsx</title>
<path fill="none" stroke="#000000" stroke-width="2" stroke-opacity="0.200000" d="M152.45,-220.17C156.79,-219.37 161.38,-218.52 165.99,-217.66"/>
<polygon fill="#000000" fill-opacity="0.200000" stroke="#000000" stroke-width="2" stroke-opacity="0.200000" points="166.32,-219.74 171.84,-216.58 165.56,-215.61 166.32,-219.74"/>
</g>
<!-- src/Profile.jsx -->
<g id="node11" class="node">
<title>src/Profile.jsx</title>
<g id="a_node11"><a xlink:href="src/Profile.jsx" xlink:title="Profile.jsx">
<path fill="#ffff77" stroke="black" d="M229.83,-250.62C229.83,-250.62 186.92,-250.62 186.92,-250.62 183.71,-250.62 180.5,-247.42 180.5,-244.21 180.5,-244.21 180.5,-237.79 180.5,-237.79 180.5,-234.58 183.71,-231.38 186.92,-231.38 186.92,-231.38 229.83,-231.38 229.83,-231.38 233.04,-231.38 236.25,-234.58 236.25,-237.79 236.25,-237.79 236.25,-244.21 236.25,-244.21 236.25,-247.42 233.04,-250.62 229.83,-250.62"/>
<text text-anchor="start" x="188.5" y="-238.07" font-family="Helvetica,sans-Serif" font-size="9.00">Profile.jsx</text>
</a>
</g>
</g>
<!-- src/App.jsx&#45;&gt;src/Profile.jsx -->
<g id="edge9" class="edge">
<title>src/App.jsx&#45;&gt;src/Profile.jsx</title>
<path fill="none" stroke="#000000" stroke-width="2" stroke-opacity="0.200000" d="M152.45,-230.15C158.55,-231.36 165.16,-232.66 171.61,-233.93"/>
<polygon fill="#000000" fill-opacity="0.200000" stroke="#000000" stroke-width="2" stroke-opacity="0.200000" points="170.97,-235.95 177.26,-235.05 171.79,-231.83 170.97,-235.95"/>
</g>
<!-- src/SignUp.jsx -->
<g id="node12" class="node">
<title>src/SignUp.jsx</title>
<g id="a_node12"><a xlink:href="src/SignUp.jsx" xlink:title="SignUp.jsx">
<path fill="#ffff77" stroke="black" d="M232.08,-389.62C232.08,-389.62 184.67,-389.62 184.67,-389.62 181.46,-389.62 178.25,-386.42 178.25,-383.21 178.25,-383.21 178.25,-376.79 178.25,-376.79 178.25,-373.58 181.46,-370.38 184.67,-370.38 184.67,-370.38 232.08,-370.38 232.08,-370.38 235.29,-370.38 238.5,-373.58 238.5,-376.79 238.5,-376.79 238.5,-383.21 238.5,-383.21 238.5,-386.42 235.29,-389.62 232.08,-389.62"/>
<text text-anchor="start" x="186.25" y="-377.07" font-family="Helvetica,sans-Serif" font-size="9.00">SignUp.jsx</text>
</a>
</g>
</g>
<!-- src/App.jsx&#45;&gt;src/SignUp.jsx -->
<g id="edge10" class="edge">
<title>src/App.jsx&#45;&gt;src/SignUp.jsx</title>
<path fill="none" stroke="#000000" stroke-width="2" stroke-opacity="0.200000" d="M148.17,-234.82C149.98,-236.33 151.6,-238.05 152.88,-240 183.47,-286.73 131.46,-321.01 165.88,-365 167.14,-366.62 168.6,-368.06 170.19,-369.35"/>
<polygon fill="#000000" fill-opacity="0.200000" stroke="#000000" stroke-width="2" stroke-opacity="0.200000" points="169.08,-371.13 175.29,-372.48 171.28,-367.55 169.08,-371.13"/>
</g>
<!-- src/CartPage.jsx -->
<g id="node23" class="node">
<title>src/CartPage.jsx</title>
<g id="a_node23"><a xlink:href="src/CartPage.jsx" xlink:title="CartPage.jsx">
<path fill="#ffff77" stroke="black" d="M345.08,-304.62C345.08,-304.62 289.42,-304.62 289.42,-304.62 286.21,-304.62 283,-301.42 283,-298.21 283,-298.21 283,-291.79 283,-291.79 283,-288.58 286.21,-285.38 289.42,-285.38 289.42,-285.38 345.08,-285.38 345.08,-285.38 348.29,-285.38 351.5,-288.58 351.5,-291.79 351.5,-291.79 351.5,-298.21 351.5,-298.21 351.5,-301.42 348.29,-304.62 345.08,-304.62"/>
<text text-anchor="start" x="291" y="-292.07" font-family="Helvetica,sans-Serif" font-size="9.00">CartPage.jsx</text>
</a>
</g>
</g>
<!-- src/Cart.jsx&#45;&gt;src/CartPage.jsx -->
<g id="edge20" class="edge">
<title>src/Cart.jsx&#45;&gt;src/CartPage.jsx</title>
<path fill="none" stroke="#000000" stroke-width="2" stroke-opacity="0.200000" d="M235.79,-277.69C247.35,-280.17 261.18,-283.15 274.1,-285.93"/>
<polygon fill="#000000" fill-opacity="0.200000" stroke="#000000" stroke-width="2" stroke-opacity="0.200000" points="273.59,-287.97 279.89,-287.18 274.47,-283.86 273.59,-287.97"/>
</g>
<!-- src/Navbar.jsx -->
<g id="node24" class="node">
<title>src/Navbar.jsx</title>
<g id="a_node24"><a xlink:href="src/Navbar.jsx" xlink:title="Navbar.jsx">
<path fill="#ffff77" stroke="black" d="M340.21,-273.62C340.21,-273.62 294.29,-273.62 294.29,-273.62 291.08,-273.62 287.88,-270.42 287.88,-267.21 287.88,-267.21 287.88,-260.79 287.88,-260.79 287.88,-257.58 291.08,-254.38 294.29,-254.38 294.29,-254.38 340.21,-254.38 340.21,-254.38 343.42,-254.38 346.62,-257.58 346.62,-260.79 346.62,-260.79 346.62,-267.21 346.62,-267.21 346.62,-270.42 343.42,-273.62 340.21,-273.62"/>
<text text-anchor="start" x="295.88" y="-261.07" font-family="Helvetica,sans-Serif" font-size="9.00">Navbar.jsx</text>
</a>
</g>
</g>
<!-- src/Cart.jsx&#45;&gt;src/Navbar.jsx -->
<g id="edge21" class="edge">
<title>src/Cart.jsx&#45;&gt;src/Navbar.jsx</title>
<path fill="none" stroke="#000000" stroke-width="2" stroke-opacity="0.200000" d="M235.79,-270.02C248.67,-269.06 264.39,-267.88 278.51,-266.82"/>
<polygon fill="#000000" fill-opacity="0.200000" stroke="#000000" stroke-width="2" stroke-opacity="0.200000" points="278.67,-268.92 284.49,-266.38 278.35,-264.73 278.67,-268.92"/>
</g>
<!-- src/ChatBar.jsx -->
<g id="node26" class="node">
<title>src/ChatBar.jsx</title>
<g id="a_node26"><a xlink:href="src/ChatBar.jsx" xlink:title="ChatBar.jsx">
<path fill="#ffff77" stroke="black" d="M342.46,-58.62C342.46,-58.62 292.04,-58.62 292.04,-58.62 288.83,-58.62 285.62,-55.42 285.62,-52.21 285.62,-52.21 285.62,-45.79 285.62,-45.79 285.62,-42.58 288.83,-39.38 292.04,-39.38 292.04,-39.38 342.46,-39.38 342.46,-39.38 345.67,-39.38 348.88,-42.58 348.88,-45.79 348.88,-45.79 348.88,-52.21 348.88,-52.21 348.88,-55.42 345.67,-58.62 342.46,-58.62"/>
<text text-anchor="start" x="293.62" y="-46.08" font-family="Helvetica,sans-Serif" font-size="9.00">ChatBar.jsx</text>
</a>
</g>
</g>
<!-- src/Chat.jsx&#45;&gt;src/ChatBar.jsx -->
<g id="edge23" class="edge">
<title>src/Chat.jsx&#45;&gt;src/ChatBar.jsx</title>
<path fill="none" stroke="#000000" stroke-width="2" stroke-opacity="0.200000" d="M235.79,-71.58C248.18,-68.11 263.2,-63.89 276.89,-60.05"/>
<polygon fill="#000000" fill-opacity="0.200000" stroke="#000000" stroke-width="2" stroke-opacity="0.200000" points="277.08,-62.18 282.29,-58.53 275.95,-58.13 277.08,-62.18"/>
</g>
<!-- src/components/ui/chat/chat&#45;bubble.jsx -->
<g id="node27" class="node">
<title>src/components/ui/chat/chat&#45;bubble.jsx</title>
<g id="a_node27"><a xlink:href="src/components/ui/chat/chat-bubble.jsx" xlink:title="chat&#45;bubble.jsx">
<path fill="#ffff77" stroke="black" d="M487.58,-118.62C487.58,-118.62 422.17,-118.62 422.17,-118.62 418.96,-118.62 415.75,-115.42 415.75,-112.21 415.75,-112.21 415.75,-105.79 415.75,-105.79 415.75,-102.58 418.96,-99.38 422.17,-99.38 422.17,-99.38 487.58,-99.38 487.58,-99.38 490.79,-99.38 494,-102.58 494,-105.79 494,-105.79 494,-112.21 494,-112.21 494,-115.42 490.79,-118.62 487.58,-118.62"/>
<text text-anchor="start" x="423.75" y="-106.08" font-family="Helvetica,sans-Serif" font-size="9.00">chat&#45;bubble.jsx</text>
</a>
</g>
</g>
<!-- src/Chat.jsx&#45;&gt;src/components/ui/chat/chat&#45;bubble.jsx -->
<g id="edge24" class="edge">
<title>src/Chat.jsx&#45;&gt;src/components/ui/chat/chat&#45;bubble.jsx</title>
<path fill="none" stroke="#000000" stroke-width="2" stroke-opacity="0.200000" d="M235.83,-72.41C269.43,-65.55 328.13,-58.75 370.62,-82 376.25,-85.08 373.3,-90.43 378.62,-94 386.93,-99.56 396.83,-103.15 406.68,-105.44"/>
<polygon fill="#000000" fill-opacity="0.200000" stroke="#000000" stroke-width="2" stroke-opacity="0.200000" points="406.01,-107.45 412.31,-106.56 406.83,-103.33 406.01,-107.45"/>
</g>
<!-- src/components/ui/chat/chat&#45;message&#45;list.jsx -->
<g id="node28" class="node">
<title>src/components/ui/chat/chat&#45;message&#45;list.jsx</title>
<g id="a_node28"><a xlink:href="src/components/ui/chat/chat-message-list.jsx" xlink:title="chat&#45;message&#45;list.jsx">
<path fill="#ffff77" stroke="black" d="M500.71,-149.62C500.71,-149.62 409.04,-149.62 409.04,-149.62 405.83,-149.62 402.62,-146.42 402.62,-143.21 402.62,-143.21 402.62,-136.79 402.62,-136.79 402.62,-133.58 405.83,-130.38 409.04,-130.38 409.04,-130.38 500.71,-130.38 500.71,-130.38 503.92,-130.38 507.12,-133.58 507.12,-136.79 507.12,-136.79 507.12,-143.21 507.12,-143.21 507.12,-146.42 503.92,-149.62 500.71,-149.62"/>
<text text-anchor="start" x="410.62" y="-137.07" font-family="Helvetica,sans-Serif" font-size="9.00">chat&#45;message&#45;list.jsx</text>
</a>
</g>
</g>
<!-- src/Chat.jsx&#45;&gt;src/components/ui/chat/chat&#45;message&#45;list.jsx -->
<g id="edge25" class="edge">
<title>src/Chat.jsx&#45;&gt;src/components/ui/chat/chat&#45;message&#45;list.jsx</title>
<path fill="none" stroke="#000000" stroke-width="2" stroke-opacity="0.200000" d="M235.8,-77.72C276.26,-76.33 350.96,-76.22 370.62,-93 381.78,-102.51 368.01,-114.89 378.62,-125 383.03,-129.2 388.26,-132.38 393.88,-134.76"/>
<polygon fill="#000000" fill-opacity="0.200000" stroke="#000000" stroke-width="2" stroke-opacity="0.200000" points="393.13,-136.73 399.49,-136.72 394.51,-132.76 393.13,-136.73"/>
</g>
<!-- src/HomePage.jsx&#45;&gt;src/AccordionSection.jsx -->
<g id="edge29" class="edge">
<title>src/HomePage.jsx&#45;&gt;src/AccordionSection.jsx</title>
<path fill="none" stroke="#000000" stroke-width="2" stroke-opacity="0.200000" d="M245.57,-327.96C247.55,-329.42 249.34,-331.09 250.88,-333 270.75,-357.83 238.94,-380.05 259.88,-404 260,-404.14 260.13,-404.28 260.25,-404.43"/>
<polygon fill="#000000" fill-opacity="0.200000" stroke="#000000" stroke-width="2" stroke-opacity="0.200000" points="258.46,-405.66 264.39,-407.95 261.19,-402.46 258.46,-405.66"/>
</g>
<!-- src/HomePage.jsx&#45;&gt;src/Navbar.jsx -->
<g id="edge32" class="edge">
<title>src/HomePage.jsx&#45;&gt;src/Navbar.jsx</title>
<path fill="none" stroke="#000000" stroke-width="2" stroke-opacity="0.200000" d="M224.4,-308C232.48,-302.41 242.48,-295.15 250.88,-288 255.18,-284.33 254.97,-281.82 259.88,-279 265.8,-275.59 272.52,-272.93 279.2,-270.87"/>
<polygon fill="#000000" fill-opacity="0.200000" stroke="#000000" stroke-width="2" stroke-opacity="0.200000" points="279.44,-272.98 284.67,-269.37 278.32,-268.93 279.44,-272.98"/>
</g>
<!-- src/FeaturedProducts.jsx -->
<g id="node30" class="node">
<title>src/FeaturedProducts.jsx</title>
<g id="a_node30"><a xlink:href="src/FeaturedProducts.jsx" xlink:title="FeaturedProducts.jsx">
<path fill="#ffff77" stroke="black" d="M362.33,-335.62C362.33,-335.62 272.17,-335.62 272.17,-335.62 268.96,-335.62 265.75,-332.42 265.75,-329.21 265.75,-329.21 265.75,-322.79 265.75,-322.79 265.75,-319.58 268.96,-316.38 272.17,-316.38 272.17,-316.38 362.33,-316.38 362.33,-316.38 365.54,-316.38 368.75,-319.58 368.75,-322.79 368.75,-322.79 368.75,-329.21 368.75,-329.21 368.75,-332.42 365.54,-335.62 362.33,-335.62"/>
<text text-anchor="start" x="273.75" y="-323.07" font-family="Helvetica,sans-Serif" font-size="9.00">FeaturedProducts.jsx</text>
</a>
</g>
</g>
<!-- src/HomePage.jsx&#45;&gt;src/FeaturedProducts.jsx -->
<g id="edge30" class="edge">
<title>src/HomePage.jsx&#45;&gt;src/FeaturedProducts.jsx</title>
<path fill="none" stroke="#000000" stroke-width="2" stroke-opacity="0.200000" d="M247.06,-320.82C250.25,-321.06 253.52,-321.3 256.83,-321.55"/>
<polygon fill="#000000" fill-opacity="0.200000" stroke="#000000" stroke-width="2" stroke-opacity="0.200000" points="256.46,-323.63 262.6,-321.98 256.77,-319.44 256.46,-323.63"/>
</g>
<!-- src/IntroSection.jsx -->
<g id="node33" class="node">
<title>src/IntroSection.jsx</title>
<g id="a_node33"><a xlink:href="src/IntroSection.jsx" xlink:title="IntroSection.jsx">
<path fill="#ffff77" stroke="black" d="M349.96,-366.62C349.96,-366.62 284.54,-366.62 284.54,-366.62 281.33,-366.62 278.12,-363.42 278.12,-360.21 278.12,-360.21 278.12,-353.79 278.12,-353.79 278.12,-350.58 281.33,-347.38 284.54,-347.38 284.54,-347.38 349.96,-347.38 349.96,-347.38 353.17,-347.38 356.38,-350.58 356.38,-353.79 356.38,-353.79 356.38,-360.21 356.38,-360.21 356.38,-363.42 353.17,-366.62 349.96,-366.62"/>
<text text-anchor="start" x="286.12" y="-354.07" font-family="Helvetica,sans-Serif" font-size="9.00">IntroSection.jsx</text>
</a>
</g>
</g>
<!-- src/HomePage.jsx&#45;&gt;src/IntroSection.jsx -->
<g id="edge31" class="edge">
<title>src/HomePage.jsx&#45;&gt;src/IntroSection.jsx</title>
<path fill="none" stroke="#000000" stroke-width="2" stroke-opacity="0.200000" d="M241.77,-328.1C244.94,-329.56 248.03,-331.19 250.88,-333 255.65,-336.03 254.97,-339.18 259.88,-342 262.9,-343.74 266.13,-345.29 269.46,-346.66"/>
<polygon fill="#000000" fill-opacity="0.200000" stroke="#000000" stroke-width="2" stroke-opacity="0.200000" points="268.66,-348.6 275.02,-348.68 270.1,-344.65 268.66,-348.6"/>
</g>
<!-- src/SocialMedia.jsx -->
<g id="node34" class="node">
<title>src/SocialMedia.jsx</title>
<g id="a_node34"><a xlink:href="src/SocialMedia.jsx" xlink:title="SocialMedia.jsx">
<path fill="#ffff77" stroke="black" d="M350.71,-397.62C350.71,-397.62 283.79,-397.62 283.79,-397.62 280.58,-397.62 277.38,-394.42 277.38,-391.21 277.38,-391.21 277.38,-384.79 277.38,-384.79 277.38,-381.58 280.58,-378.38 283.79,-378.38 283.79,-378.38 350.71,-378.38 350.71,-378.38 353.92,-378.38 357.12,-381.58 357.12,-384.79 357.12,-384.79 357.12,-391.21 357.12,-391.21 357.12,-394.42 353.92,-397.62 350.71,-397.62"/>
<text text-anchor="start" x="285.38" y="-385.07" font-family="Helvetica,sans-Serif" font-size="9.00">SocialMedia.jsx</text>
</a>
</g>
</g>
<!-- src/HomePage.jsx&#45;&gt;src/SocialMedia.jsx -->
<g id="edge33" class="edge">
<title>src/HomePage.jsx&#45;&gt;src/SocialMedia.jsx</title>
<path fill="none" stroke="#000000" stroke-width="2" stroke-opacity="0.200000" d="M244.99,-327.87C247.16,-329.35 249.15,-331.05 250.88,-333 262.93,-346.67 247.24,-359.87 259.88,-373 262.52,-375.75 265.61,-378.02 268.95,-379.88"/>
<polygon fill="#000000" fill-opacity="0.200000" stroke="#000000" stroke-width="2" stroke-opacity="0.200000" points="268.03,-381.77 274.37,-382.3 269.75,-377.94 268.03,-381.77"/>
</g>
<!-- src/Listings.jsx&#45;&gt;src/Navbar.jsx -->
<g id="edge35" class="edge">
<title>src/Listings.jsx&#45;&gt;src/Navbar.jsx</title>
<path fill="none" stroke="#000000" stroke-width="2" stroke-opacity="0.200000" d="M239.94,-185.7C244.1,-187.76 247.94,-190.46 250.88,-194 266.7,-213.05 243.24,-230.65 259.88,-249 264.91,-254.55 271.75,-258.15 278.93,-260.46"/>
<polygon fill="#000000" fill-opacity="0.200000" stroke="#000000" stroke-width="2" stroke-opacity="0.200000" points="278.15,-262.43 284.48,-261.87 279.18,-258.36 278.15,-262.43"/>
</g>
<!-- src/ListingsPage.jsx -->
<g id="node35" class="node">
<title>src/ListingsPage.jsx</title>
<g id="a_node35"><a xlink:href="src/ListingsPage.jsx" xlink:title="ListingsPage.jsx">
<path fill="#ffff77" stroke="black" d="M352.96,-180.62C352.96,-180.62 281.54,-180.62 281.54,-180.62 278.33,-180.62 275.12,-177.42 275.12,-174.21 275.12,-174.21 275.12,-167.79 275.12,-167.79 275.12,-164.58 278.33,-161.38 281.54,-161.38 281.54,-161.38 352.96,-161.38 352.96,-161.38 356.17,-161.38 359.38,-164.58 359.38,-167.79 359.38,-167.79 359.38,-174.21 359.38,-174.21 359.38,-177.42 356.17,-180.62 352.96,-180.62"/>
<text text-anchor="start" x="283.12" y="-168.07" font-family="Helvetica,sans-Serif" font-size="9.00">ListingsPage.jsx</text>
</a>
</g>
</g>
<!-- src/Listings.jsx&#45;&gt;src/ListingsPage.jsx -->
<g id="edge34" class="edge">
<title>src/Listings.jsx&#45;&gt;src/ListingsPage.jsx</title>
<path fill="none" stroke="#000000" stroke-width="2" stroke-opacity="0.200000" d="M240,-176.71C248.14,-176.1 257.16,-175.42 266.05,-174.76"/>
<polygon fill="#000000" fill-opacity="0.200000" stroke="#000000" stroke-width="2" stroke-opacity="0.200000" points="266.02,-176.87 271.84,-174.32 265.7,-172.68 266.02,-176.87"/>
</g>
<!-- src/SearchBar.jsx -->
<g id="node36" class="node">
<title>src/SearchBar.jsx</title>
<g id="a_node36"><a xlink:href="src/SearchBar.jsx" xlink:title="SearchBar.jsx">
<path fill="#ffff77" stroke="black" d="M347.33,-149.62C347.33,-149.62 287.17,-149.62 287.17,-149.62 283.96,-149.62 280.75,-146.42 280.75,-143.21 280.75,-143.21 280.75,-136.79 280.75,-136.79 280.75,-133.58 283.96,-130.38 287.17,-130.38 287.17,-130.38 347.33,-130.38 347.33,-130.38 350.54,-130.38 353.75,-133.58 353.75,-136.79 353.75,-136.79 353.75,-143.21 353.75,-143.21 353.75,-146.42 350.54,-149.62 347.33,-149.62"/>
<text text-anchor="start" x="288.75" y="-137.07" font-family="Helvetica,sans-Serif" font-size="9.00">SearchBar.jsx</text>
</a>
</g>
</g>
<!-- src/Listings.jsx&#45;&gt;src/SearchBar.jsx -->
<g id="edge36" class="edge">
<title>src/Listings.jsx&#45;&gt;src/SearchBar.jsx</title>
<path fill="none" stroke="#000000" stroke-width="2" stroke-opacity="0.200000" d="M240.03,-169.68C243.8,-168.02 247.51,-166.14 250.88,-164 255.65,-160.97 254.97,-157.82 259.88,-155 263.73,-152.78 267.91,-150.88 272.21,-149.26"/>
<polygon fill="#000000" fill-opacity="0.200000" stroke="#000000" stroke-width="2" stroke-opacity="0.200000" points="272.65,-151.33 277.67,-147.43 271.31,-147.35 272.65,-151.33"/>
</g>
<!-- src/Authorization/Authorization&#45;Forms/login&#45;form.jsx -->
<g id="node17" class="node">
<title>src/Authorization/Authorization&#45;Forms/login&#45;form.jsx</title>
<g id="a_node17"><a xlink:href="src/Authorization/Authorization-Forms/login-form.jsx" xlink:title="login&#45;form.jsx">
<path fill="#ffff77" stroke="black" d="M346.58,-767.62C346.58,-767.62 287.92,-767.62 287.92,-767.62 284.71,-767.62 281.5,-764.42 281.5,-761.21 281.5,-761.21 281.5,-754.79 281.5,-754.79 281.5,-751.58 284.71,-748.38 287.92,-748.38 287.92,-748.38 346.58,-748.38 346.58,-748.38 349.79,-748.38 353,-751.58 353,-754.79 353,-754.79 353,-761.21 353,-761.21 353,-764.42 349.79,-767.62 346.58,-767.62"/>
<text text-anchor="start" x="289.5" y="-755.08" font-family="Helvetica,sans-Serif" font-size="9.00">login&#45;form.jsx</text>
</a>
</g>
</g>
<!-- src/Login.jsx&#45;&gt;src/Authorization/Authorization&#45;Forms/login&#45;form.jsx -->
<g id="edge38" class="edge">
<title>src/Login.jsx&#45;&gt;src/Authorization/Authorization&#45;Forms/login&#45;form.jsx</title>
<path fill="none" stroke="#000000" stroke-width="2" stroke-opacity="0.200000" d="M235.74,-353.3C241.63,-355.53 247.21,-358.9 250.88,-364 263.21,-381.14 246.67,-727.52 259.88,-744 263.35,-748.34 267.94,-751.46 273.01,-753.68"/>
<polygon fill="#000000" fill-opacity="0.200000" stroke="#000000" stroke-width="2" stroke-opacity="0.200000" points="272.05,-755.57 278.41,-755.51 273.4,-751.6 272.05,-755.57"/>
</g>
<!-- src/Login.jsx&#45;&gt;src/Navbar.jsx -->
<g id="edge39" class="edge">
<title>src/Login.jsx&#45;&gt;src/Navbar.jsx</title>
<path fill="none" stroke="#000000" stroke-width="2" stroke-opacity="0.200000" d="M235.7,-344.16C241.44,-341.95 246.96,-338.71 250.88,-334 266.7,-314.95 243.24,-297.35 259.88,-279 264.91,-273.45 271.75,-269.85 278.93,-267.54"/>
<polygon fill="#000000" fill-opacity="0.200000" stroke="#000000" stroke-width="2" stroke-opacity="0.200000" points="279.18,-269.64 284.48,-266.13 278.15,-265.57 279.18,-269.64"/>
</g>
<!-- src/ProductDetail.jsx&#45;&gt;src/Navbar.jsx -->
<g id="edge40" class="edge">
<title>src/ProductDetail.jsx&#45;&gt;src/Navbar.jsx</title>
<path fill="none" stroke="#000000" stroke-width="2" stroke-opacity="0.200000" d="M245.62,-157.92C247.58,-159.39 249.36,-161.07 250.88,-163 274.56,-193.26 234.9,-219.79 259.88,-249 264.8,-254.75 271.65,-258.43 278.89,-260.74"/>
<polygon fill="#000000" fill-opacity="0.200000" stroke="#000000" stroke-width="2" stroke-opacity="0.200000" points="278.2,-262.74 284.53,-262.15 279.22,-258.66 278.2,-262.74"/>
</g>
<!-- src/ProductDetailPage.jsx -->
<g id="node37" class="node">
<title>src/ProductDetailPage.jsx</title>
<g id="a_node37"><a xlink:href="src/ProductDetailPage.jsx" xlink:title="ProductDetailPage.jsx">
<path fill="#ffff77" stroke="black" d="M364.21,-118.62C364.21,-118.62 270.29,-118.62 270.29,-118.62 267.08,-118.62 263.88,-115.42 263.88,-112.21 263.88,-112.21 263.88,-105.79 263.88,-105.79 263.88,-102.58 267.08,-99.38 270.29,-99.38 270.29,-99.38 364.21,-99.38 364.21,-99.38 367.42,-99.38 370.62,-102.58 370.62,-105.79 370.62,-105.79 370.62,-112.21 370.62,-112.21 370.62,-115.42 367.42,-118.62 364.21,-118.62"/>
<text text-anchor="start" x="271.88" y="-106.08" font-family="Helvetica,sans-Serif" font-size="9.00">ProductDetailPage.jsx</text>
</a>
</g>
</g>
<!-- src/ProductDetail.jsx&#45;&gt;src/ProductDetailPage.jsx -->
<g id="edge41" class="edge">
<title>src/ProductDetail.jsx&#45;&gt;src/ProductDetailPage.jsx</title>
<path fill="none" stroke="#000000" stroke-width="2" stroke-opacity="0.200000" d="M228.2,-138.04C237.55,-133.36 249.12,-127.95 259.88,-124 261.95,-123.24 264.09,-122.49 266.26,-121.77"/>
<polygon fill="#000000" fill-opacity="0.200000" stroke="#000000" stroke-width="2" stroke-opacity="0.200000" points="266.74,-123.82 271.83,-120.02 265.48,-119.82 266.74,-123.82"/>
</g>
<!-- src/Products.jsx&#45;&gt;src/Navbar.jsx -->
<g id="edge42" class="edge">
<title>src/Products.jsx&#45;&gt;src/Navbar.jsx</title>
<path fill="none" stroke="#000000" stroke-width="2" stroke-opacity="0.200000" d="M241.86,-218.5C245.17,-220.27 248.26,-222.42 250.88,-225 258.98,-233.01 251.43,-241.35 259.88,-249 265.32,-253.94 272.22,-257.28 279.29,-259.53"/>
<polygon fill="#000000" fill-opacity="0.200000" stroke="#000000" stroke-width="2" stroke-opacity="0.200000" points="278.35,-261.46 284.69,-260.95 279.41,-257.4 278.35,-261.46"/>
</g>
<!-- src/ProductsPage.jsx -->
<g id="node38" class="node">
<title>src/ProductsPage.jsx</title>
<g id="a_node38"><a xlink:href="src/ProductsPage.jsx" xlink:title="ProductsPage.jsx">
<path fill="#ffff77" stroke="black" d="M354.83,-211.62C354.83,-211.62 279.67,-211.62 279.67,-211.62 276.46,-211.62 273.25,-208.42 273.25,-205.21 273.25,-205.21 273.25,-198.79 273.25,-198.79 273.25,-195.58 276.46,-192.38 279.67,-192.38 279.67,-192.38 354.83,-192.38 354.83,-192.38 358.04,-192.38 361.25,-195.58 361.25,-198.79 361.25,-198.79 361.25,-205.21 361.25,-205.21 361.25,-208.42 358.04,-211.62 354.83,-211.62"/>
<text text-anchor="start" x="281.25" y="-199.07" font-family="Helvetica,sans-Serif" font-size="9.00">ProductsPage.jsx</text>
</a>
</g>
</g>
<!-- src/Products.jsx&#45;&gt;src/ProductsPage.jsx -->
<g id="edge43" class="edge">
<title>src/Products.jsx&#45;&gt;src/ProductsPage.jsx</title>
<path fill="none" stroke="#000000" stroke-width="2" stroke-opacity="0.200000" d="M241.73,-207.58C248.8,-207.05 256.45,-206.48 264.06,-205.91"/>
<polygon fill="#000000" fill-opacity="0.200000" stroke="#000000" stroke-width="2" stroke-opacity="0.200000" points="264.11,-208.01 269.93,-205.47 263.79,-203.82 264.11,-208.01"/>
</g>
<!-- src/Profile.jsx&#45;&gt;src/Navbar.jsx -->
<g id="edge45" class="edge">
<title>src/Profile.jsx&#45;&gt;src/Navbar.jsx</title>
<path fill="none" stroke="#000000" stroke-width="2" stroke-opacity="0.200000" d="M236.62,-246.86C249.53,-249.64 265.14,-253 279.11,-256.01"/>
<polygon fill="#000000" fill-opacity="0.200000" stroke="#000000" stroke-width="2" stroke-opacity="0.200000" points="278.29,-257.98 284.6,-257.19 279.18,-253.87 278.29,-257.98"/>
</g>
<!-- src/ProfilePage.jsx -->
<g id="node39" class="node">
<title>src/ProfilePage.jsx</title>
<g id="a_node39"><a xlink:href="src/ProfilePage.jsx" xlink:title="ProfilePage.jsx">
<path fill="#ffff77" stroke="black" d="M349.58,-242.62C349.58,-242.62 284.92,-242.62 284.92,-242.62 281.71,-242.62 278.5,-239.42 278.5,-236.21 278.5,-236.21 278.5,-229.79 278.5,-229.79 278.5,-226.58 281.71,-223.38 284.92,-223.38 284.92,-223.38 349.58,-223.38 349.58,-223.38 352.79,-223.38 356,-226.58 356,-229.79 356,-229.79 356,-236.21 356,-236.21 356,-239.42 352.79,-242.62 349.58,-242.62"/>
<text text-anchor="start" x="286.5" y="-230.07" font-family="Helvetica,sans-Serif" font-size="9.00">ProfilePage.jsx</text>
</a>
</g>
</g>
<!-- src/Profile.jsx&#45;&gt;src/ProfilePage.jsx -->
<g id="edge46" class="edge">
<title>src/Profile.jsx&#45;&gt;src/ProfilePage.jsx</title>
<path fill="none" stroke="#000000" stroke-width="2" stroke-opacity="0.200000" d="M236.62,-238.96C246.58,-238.22 258.14,-237.35 269.32,-236.51"/>
<polygon fill="#000000" fill-opacity="0.200000" stroke="#000000" stroke-width="2" stroke-opacity="0.200000" points="269.32,-238.62 275.15,-236.08 269.01,-234.43 269.32,-238.62"/>
</g>
<!-- src/Authorization/Authorization&#45;Forms/register&#45;form.jsx -->
<g id="node19" class="node">
<title>src/Authorization/Authorization&#45;Forms/register&#45;form.jsx</title>
<g id="a_node19"><a xlink:href="src/Authorization/Authorization-Forms/register-form.jsx" xlink:title="register&#45;form.jsx">
<path fill="#ffff77" stroke="black" d="M352.21,-798.62C352.21,-798.62 282.29,-798.62 282.29,-798.62 279.08,-798.62 275.88,-795.42 275.88,-792.21 275.88,-792.21 275.88,-785.79 275.88,-785.79 275.88,-782.58 279.08,-779.38 282.29,-779.38 282.29,-779.38 352.21,-779.38 352.21,-779.38 355.42,-779.38 358.62,-782.58 358.62,-785.79 358.62,-785.79 358.62,-792.21 358.62,-792.21 358.62,-795.42 355.42,-798.62 352.21,-798.62"/>
<text text-anchor="start" x="283.88" y="-786.08" font-family="Helvetica,sans-Serif" font-size="9.00">register&#45;form.jsx</text>
</a>
</g>
</g>
<!-- src/SignUp.jsx&#45;&gt;src/Authorization/Authorization&#45;Forms/register&#45;form.jsx -->
<g id="edge47" class="edge">
<title>src/SignUp.jsx&#45;&gt;src/Authorization/Authorization&#45;Forms/register&#45;form.jsx</title>
<path fill="none" stroke="#000000" stroke-width="2" stroke-opacity="0.200000" d="M209.21,-389.88C208.5,-445.02 207.75,-714.46 259.88,-774 262.11,-776.55 264.72,-778.69 267.58,-780.48"/>
<polygon fill="#000000" fill-opacity="0.200000" stroke="#000000" stroke-width="2" stroke-opacity="0.200000" points="266.58,-782.34 272.89,-783.12 268.45,-778.57 266.58,-782.34"/>
</g>
<!-- src/SignUp.jsx&#45;&gt;src/Navbar.jsx -->
<g id="edge48" class="edge">
<title>src/SignUp.jsx&#45;&gt;src/Navbar.jsx</title>
<path fill="none" stroke="#000000" stroke-width="2" stroke-opacity="0.200000" d="M238.87,-374.06C243.49,-371.91 247.76,-368.98 250.88,-365 274.56,-334.74 234.9,-308.21 259.88,-279 264.8,-273.25 271.65,-269.57 278.89,-267.26"/>
<polygon fill="#000000" fill-opacity="0.200000" stroke="#000000" stroke-width="2" stroke-opacity="0.200000" points="279.22,-269.34 284.53,-265.85 278.2,-265.26 279.22,-269.34"/>
</g>
<!-- src/Authorization/Authorization&#45;Forms/auth&#45;headers.jsx -->
<g id="node13" class="node">
<title>src/Authorization/Authorization&#45;Forms/auth&#45;headers.jsx</title>
<g id="a_node13"><a xlink:href="src/Authorization/Authorization-Forms/auth-headers.jsx" xlink:title="auth&#45;headers.jsx">
<path fill="#ffff77" stroke="black" d="M607.71,-767.62C607.71,-767.62 535.54,-767.62 535.54,-767.62 532.33,-767.62 529.12,-764.42 529.12,-761.21 529.12,-761.21 529.12,-754.79 529.12,-754.79 529.12,-751.58 532.33,-748.38 535.54,-748.38 535.54,-748.38 607.71,-748.38 607.71,-748.38 610.92,-748.38 614.12,-751.58 614.12,-754.79 614.12,-754.79 614.12,-761.21 614.12,-761.21 614.12,-764.42 610.92,-767.62 607.71,-767.62"/>
<text text-anchor="start" x="537.12" y="-755.08" font-family="Helvetica,sans-Serif" font-size="9.00">auth&#45;headers.jsx</text>
</a>
</g>
</g>
<!-- src/Authorization/Authorization&#45;Forms/back&#45;button.jsx -->
<g id="node14" class="node">
<title>src/Authorization/Authorization&#45;Forms/back&#45;button.jsx</title>
<g id="a_node14"><a xlink:href="src/Authorization/Authorization-Forms/back-button.jsx" xlink:title="back&#45;button.jsx">
<path fill="#ffff77" stroke="black" d="M603.96,-798.62C603.96,-798.62 539.29,-798.62 539.29,-798.62 536.08,-798.62 532.88,-795.42 532.88,-792.21 532.88,-792.21 532.88,-785.79 532.88,-785.79 532.88,-782.58 536.08,-779.38 539.29,-779.38 539.29,-779.38 603.96,-779.38 603.96,-779.38 607.17,-779.38 610.38,-782.58 610.38,-785.79 610.38,-785.79 610.38,-792.21 610.38,-792.21 610.38,-795.42 607.17,-798.62 603.96,-798.62"/>
<text text-anchor="start" x="540.88" y="-786.08" font-family="Helvetica,sans-Serif" font-size="9.00">back&#45;button.jsx</text>
</a>
</g>
</g>
<!-- src/Authorization/UI&#45;Components/button.jsx -->
<g id="node15" class="node">
<title>src/Authorization/UI&#45;Components/button.jsx</title>
<g id="a_node15"><a xlink:href="src/Authorization/UI-Components/button.jsx" xlink:title="button.jsx">
<path fill="#ffff77" stroke="black" d="M732.71,-767.62C732.71,-767.62 690.54,-767.62 690.54,-767.62 687.33,-767.62 684.12,-764.42 684.12,-761.21 684.12,-761.21 684.12,-754.79 684.12,-754.79 684.12,-751.58 687.33,-748.38 690.54,-748.38 690.54,-748.38 732.71,-748.38 732.71,-748.38 735.92,-748.38 739.12,-751.58 739.12,-754.79 739.12,-754.79 739.12,-761.21 739.12,-761.21 739.12,-764.42 735.92,-767.62 732.71,-767.62"/>
<text text-anchor="start" x="692.12" y="-755.08" font-family="Helvetica,sans-Serif" font-size="9.00">button.jsx</text>
</a>
</g>
</g>
<!-- src/Authorization/Authorization&#45;Forms/back&#45;button.jsx&#45;&gt;src/Authorization/UI&#45;Components/button.jsx -->
<g id="edge11" class="edge">
<title>src/Authorization/Authorization&#45;Forms/back&#45;button.jsx&#45;&gt;src/Authorization/UI&#45;Components/button.jsx</title>
<path fill="none" stroke="#000000" stroke-width="2" stroke-opacity="0.200000" d="M610.6,-781.72C622.34,-779.37 635.29,-776.68 647.12,-774 656.28,-771.93 666.14,-769.52 675.3,-767.22"/>
<polygon fill="#000000" fill-opacity="0.200000" stroke="#000000" stroke-width="2" stroke-opacity="0.200000" points="675.58,-769.32 680.88,-765.81 674.55,-765.25 675.58,-769.32"/>
</g>
<!-- src/Authorization/Authorization&#45;Forms/card&#45;wrapper.jsx -->
<g id="node16" class="node">
<title>src/Authorization/Authorization&#45;Forms/card&#45;wrapper.jsx</title>
<g id="a_node16"><a xlink:href="src/Authorization/Authorization-Forms/card-wrapper.jsx" xlink:title="card&#45;wrapper.jsx">
<path fill="#ffff77" stroke="black" d="M490.58,-783.62C490.58,-783.62 419.17,-783.62 419.17,-783.62 415.96,-783.62 412.75,-780.42 412.75,-777.21 412.75,-777.21 412.75,-770.79 412.75,-770.79 412.75,-767.58 415.96,-764.38 419.17,-764.38 419.17,-764.38 490.58,-764.38 490.58,-764.38 493.79,-764.38 497,-767.58 497,-770.79 497,-770.79 497,-777.21 497,-777.21 497,-780.42 493.79,-783.62 490.58,-783.62"/>
<text text-anchor="start" x="420.75" y="-771.08" font-family="Helvetica,sans-Serif" font-size="9.00">card&#45;wrapper.jsx</text>
</a>
</g>
</g>
<!-- src/Authorization/Authorization&#45;Forms/card&#45;wrapper.jsx&#45;&gt;src/Authorization/Authorization&#45;Forms/auth&#45;headers.jsx -->
<g id="edge12" class="edge">
<title>src/Authorization/Authorization&#45;Forms/card&#45;wrapper.jsx&#45;&gt;src/Authorization/Authorization&#45;Forms/auth&#45;headers.jsx</title>
<path fill="none" stroke="#000000" stroke-width="2" stroke-opacity="0.200000" d="M497.3,-768.22C504.69,-767.19 512.45,-766.11 520.05,-765.05"/>
<polygon fill="#000000" fill-opacity="0.200000" stroke="#000000" stroke-width="2" stroke-opacity="0.200000" points="520.22,-767.15 525.87,-764.24 519.64,-762.99 520.22,-767.15"/>
</g>
<!-- src/Authorization/Authorization&#45;Forms/card&#45;wrapper.jsx&#45;&gt;src/Authorization/Authorization&#45;Forms/back&#45;button.jsx -->
<g id="edge13" class="edge">
<title>src/Authorization/Authorization&#45;Forms/card&#45;wrapper.jsx&#45;&gt;src/Authorization/Authorization&#45;Forms/back&#45;button.jsx</title>
<path fill="none" stroke="#000000" stroke-width="2" stroke-opacity="0.200000" d="M497.3,-779.42C505.97,-780.55 515.16,-781.75 524,-782.91"/>
<polygon fill="#000000" fill-opacity="0.200000" stroke="#000000" stroke-width="2" stroke-opacity="0.200000" points="523.47,-784.95 529.69,-783.65 524.02,-780.79 523.47,-784.95"/>
</g>
<!-- src/Authorization/Authorization&#45;Forms/login&#45;form.jsx&#45;&gt;src/Authorization/UI&#45;Components/button.jsx -->
<g id="edge14" class="edge">
<title>src/Authorization/Authorization&#45;Forms/login&#45;form.jsx&#45;&gt;src/Authorization/UI&#45;Components/button.jsx</title>
<path fill="none" stroke="#000000" stroke-width="2" stroke-opacity="0.200000" d="M353.3,-763.55C359.56,-765.73 365.65,-768.77 370.62,-773 376.99,-778.41 371.82,-785.16 378.62,-790 427.32,-824.64 593.67,-831.73 647.12,-805 663.03,-797.05 656.92,-783.69 671.12,-773 672.65,-771.85 674.27,-770.78 675.95,-769.79"/>
<polygon fill="#000000" fill-opacity="0.200000" stroke="#000000" stroke-width="2" stroke-opacity="0.200000" points="676.53,-771.85 680.93,-767.26 674.63,-768.11 676.53,-771.85"/>
</g>
<!-- src/Authorization/Authorization&#45;Forms/login&#45;form.jsx&#45;&gt;src/Authorization/Authorization&#45;Forms/card&#45;wrapper.jsx -->
<g id="edge16" class="edge">
<title>src/Authorization/Authorization&#45;Forms/login&#45;form.jsx&#45;&gt;src/Authorization/Authorization&#45;Forms/card&#45;wrapper.jsx</title>
<path fill="none" stroke="#000000" stroke-width="2" stroke-opacity="0.200000" d="M353.18,-762.12C368.55,-763.93 386.9,-766.1 403.69,-768.08"/>
<polygon fill="#000000" fill-opacity="0.200000" stroke="#000000" stroke-width="2" stroke-opacity="0.200000" points="403.1,-770.12 409.3,-768.74 403.59,-765.95 403.1,-770.12"/>
</g>
<!-- src/Authorization/UI&#45;Components/input.jsx -->
<g id="node18" class="node">
<title>src/Authorization/UI&#45;Components/input.jsx</title>
<g id="a_node18"><a xlink:href="src/Authorization/UI-Components/input.jsx" xlink:title="input.jsx">
<path fill="#ffff77" stroke="black" d="M732.21,-798.62C732.21,-798.62 691.04,-798.62 691.04,-798.62 687.83,-798.62 684.62,-795.42 684.62,-792.21 684.62,-792.21 684.62,-785.79 684.62,-785.79 684.62,-782.58 687.83,-779.38 691.04,-779.38 691.04,-779.38 732.21,-779.38 732.21,-779.38 735.42,-779.38 738.62,-782.58 738.62,-785.79 738.62,-785.79 738.62,-792.21 738.62,-792.21 738.62,-795.42 735.42,-798.62 732.21,-798.62"/>
<text text-anchor="start" x="694.75" y="-786.08" font-family="Helvetica,sans-Serif" font-size="9.00">input.jsx</text>
</a>
</g>
</g>
<!-- src/Authorization/Authorization&#45;Forms/login&#45;form.jsx&#45;&gt;src/Authorization/UI&#45;Components/input.jsx -->
<g id="edge15" class="edge">
<title>src/Authorization/Authorization&#45;Forms/login&#45;form.jsx&#45;&gt;src/Authorization/UI&#45;Components/input.jsx</title>
<path fill="none" stroke="#000000" stroke-width="2" stroke-opacity="0.200000" d="M353.29,-762.42C359.77,-764.69 365.96,-768.04 370.62,-773 381.86,-784.93 366.13,-798.39 378.62,-809 424.11,-847.65 589.26,-831.66 647.12,-817 658.88,-814.02 660.1,-809.05 671.12,-804 672.86,-803.21 674.65,-802.42 676.46,-801.64"/>
<polygon fill="#000000" fill-opacity="0.200000" stroke="#000000" stroke-width="2" stroke-opacity="0.200000" points="676.94,-803.72 681.7,-799.5 675.35,-799.83 676.94,-803.72"/>
</g>
<!-- src/Authorization/Authorization&#45;Forms/register&#45;form.jsx&#45;&gt;src/Authorization/UI&#45;Components/button.jsx -->
<g id="edge17" class="edge">
<title>src/Authorization/Authorization&#45;Forms/register&#45;form.jsx&#45;&gt;src/Authorization/UI&#45;Components/button.jsx</title>
<path fill="none" stroke="#000000" stroke-width="2" stroke-opacity="0.200000" d="M340.18,-799.03C395.99,-822.94 546.11,-876.96 647.12,-817 666.28,-805.63 654.34,-787.64 671.12,-773 672.61,-771.71 674.21,-770.52 675.9,-769.43"/>
<polygon fill="#000000" fill-opacity="0.200000" stroke="#000000" stroke-width="2" stroke-opacity="0.200000" points="676.71,-771.38 681.01,-766.69 674.73,-767.68 676.71,-771.38"/>
</g>
<!-- src/Authorization/Authorization&#45;Forms/register&#45;form.jsx&#45;&gt;src/Authorization/Authorization&#45;Forms/card&#45;wrapper.jsx -->
<g id="edge19" class="edge">
<title>src/Authorization/Authorization&#45;Forms/register&#45;form.jsx&#45;&gt;src/Authorization/Authorization&#45;Forms/card&#45;wrapper.jsx</title>
<path fill="none" stroke="#000000" stroke-width="2" stroke-opacity="0.200000" d="M358.94,-784.5C372.9,-782.96 388.69,-781.21 403.33,-779.59"/>
<polygon fill="#000000" fill-opacity="0.200000" stroke="#000000" stroke-width="2" stroke-opacity="0.200000" points="403.53,-781.68 409.26,-778.93 403.07,-777.51 403.53,-781.68"/>
</g>
<!-- src/Authorization/Authorization&#45;Forms/register&#45;form.jsx&#45;&gt;src/Authorization/UI&#45;Components/input.jsx -->
<g id="edge18" class="edge">
<title>src/Authorization/Authorization&#45;Forms/register&#45;form.jsx&#45;&gt;src/Authorization/UI&#45;Components/input.jsx</title>
<path fill="none" stroke="#000000" stroke-width="2" stroke-opacity="0.200000" d="M325.44,-799.12C335.54,-812.37 355.35,-834.99 378.62,-844 489.91,-887.09 543.28,-902.8 647.12,-844 665.17,-833.79 655.22,-817.3 671.12,-804 672.8,-802.6 674.62,-801.32 676.52,-800.16"/>
<polygon fill="#000000" fill-opacity="0.200000" stroke="#000000" stroke-width="2" stroke-opacity="0.200000" points="677.13,-802.21 681.5,-797.59 675.21,-798.47 677.13,-802.21"/>
</g>
<!-- src/Authorization/UI&#45;Components/card.jsx -->
<g id="node20" class="node">
<title>src/Authorization/UI&#45;Components/card.jsx</title>
<g id="a_node20"><a xlink:href="src/Authorization/UI-Components/card.jsx" xlink:title="card.jsx">
<path fill="#ccffcc" stroke="black" d="M732.21,-829.62C732.21,-829.62 691.04,-829.62 691.04,-829.62 687.83,-829.62 684.62,-826.42 684.62,-823.21 684.62,-823.21 684.62,-816.79 684.62,-816.79 684.62,-813.58 687.83,-810.38 691.04,-810.38 691.04,-810.38 732.21,-810.38 732.21,-810.38 735.42,-810.38 738.62,-813.58 738.62,-816.79 738.62,-816.79 738.62,-823.21 738.62,-823.21 738.62,-826.42 735.42,-829.62 732.21,-829.62"/>
<text text-anchor="start" x="695.88" y="-817.08" font-family="Helvetica,sans-Serif" font-size="9.00">card.jsx</text>
</a>
</g>
</g>
<!-- src/Authorization/UI&#45;Components/form.jsx -->
<g id="node21" class="node">
<title>src/Authorization/UI&#45;Components/form.jsx</title>
<g id="a_node21"><a xlink:href="src/Authorization/UI-Components/form.jsx" xlink:title="form.jsx">
<path fill="#ccffcc" stroke="black" d="M732.21,-860.62C732.21,-860.62 691.04,-860.62 691.04,-860.62 687.83,-860.62 684.62,-857.42 684.62,-854.21 684.62,-854.21 684.62,-847.79 684.62,-847.79 684.62,-844.58 687.83,-841.38 691.04,-841.38 691.04,-841.38 732.21,-841.38 732.21,-841.38 735.42,-841.38 738.62,-844.58 738.62,-847.79 738.62,-847.79 738.62,-854.21 738.62,-854.21 738.62,-857.42 735.42,-860.62 732.21,-860.62"/>
<text text-anchor="start" x="695.5" y="-848.08" font-family="Helvetica,sans-Serif" font-size="9.00">form.jsx</text>
</a>
</g>
</g>
<!-- src/Authorization/UI&#45;Components/label.jsx -->
<g id="node22" class="node">
<title>src/Authorization/UI&#45;Components/label.jsx</title>
<g id="a_node22"><a xlink:href="src/Authorization/UI-Components/label.jsx" xlink:title="label.jsx">
<path fill="#ccffcc" stroke="black" d="M732.21,-891.62C732.21,-891.62 691.04,-891.62 691.04,-891.62 687.83,-891.62 684.62,-888.42 684.62,-885.21 684.62,-885.21 684.62,-878.79 684.62,-878.79 684.62,-875.58 687.83,-872.38 691.04,-872.38 691.04,-872.38 732.21,-872.38 732.21,-872.38 735.42,-872.38 738.62,-875.58 738.62,-878.79 738.62,-878.79 738.62,-885.21 738.62,-885.21 738.62,-888.42 735.42,-891.62 732.21,-891.62"/>
<text text-anchor="start" x="694.75" y="-879.08" font-family="Helvetica,sans-Serif" font-size="9.00">label.jsx</text>
</a>
</g>
</g>
<!-- src/components/ui/table.jsx -->
<g id="node25" class="node">
<title>src/components/ui/table.jsx</title>
<g id="a_node25"><a xlink:href="src/components/ui/table.jsx" xlink:title="table.jsx">
<path fill="#ffff77" stroke="black" d="M475.46,-204.62C475.46,-204.62 434.29,-204.62 434.29,-204.62 431.08,-204.62 427.88,-201.42 427.88,-198.21 427.88,-198.21 427.88,-191.79 427.88,-191.79 427.88,-188.58 431.08,-185.38 434.29,-185.38 434.29,-185.38 475.46,-185.38 475.46,-185.38 478.67,-185.38 481.88,-188.58 481.88,-191.79 481.88,-191.79 481.88,-198.21 481.88,-198.21 481.88,-201.42 478.67,-204.62 475.46,-204.62"/>
<text text-anchor="start" x="438" y="-192.07" font-family="Helvetica,sans-Serif" font-size="9.00">table.jsx</text>
</a>
</g>
</g>
<!-- src/CartPage.jsx&#45;&gt;src/components/ui/table.jsx -->
<g id="edge22" class="edge">
<title>src/CartPage.jsx&#45;&gt;src/components/ui/table.jsx</title>
<path fill="none" stroke="#000000" stroke-width="2" stroke-opacity="0.200000" d="M351.81,-291.58C358.96,-289.31 365.8,-285.7 370.62,-280 390.87,-256.11 357.42,-233.04 378.62,-210 388.71,-199.04 404.34,-194.79 418.74,-193.49"/>
<polygon fill="#000000" fill-opacity="0.200000" stroke="#000000" stroke-width="2" stroke-opacity="0.200000" points="418.59,-195.6 424.47,-193.18 418.37,-191.4 418.59,-195.6"/>
</g>
<!-- src/components/ui/chat/chat&#45;input.jsx -->
<g id="node29" class="node">
<title>src/components/ui/chat/chat&#45;input.jsx</title>
<g id="a_node29"><a xlink:href="src/components/ui/chat/chat-input.jsx" xlink:title="chat&#45;input.jsx">
<path fill="#ffff77" stroke="black" d="M483.46,-87.62C483.46,-87.62 426.29,-87.62 426.29,-87.62 423.08,-87.62 419.88,-84.42 419.88,-81.21 419.88,-81.21 419.88,-74.79 419.88,-74.79 419.88,-71.58 423.08,-68.38 426.29,-68.38 426.29,-68.38 483.46,-68.38 483.46,-68.38 486.67,-68.38 489.88,-71.58 489.88,-74.79 489.88,-74.79 489.88,-81.21 489.88,-81.21 489.88,-84.42 486.67,-87.62 483.46,-87.62"/>
<text text-anchor="start" x="427.88" y="-75.08" font-family="Helvetica,sans-Serif" font-size="9.00">chat&#45;input.jsx</text>
</a>
</g>
</g>
<!-- src/ChatBar.jsx&#45;&gt;src/components/ui/chat/chat&#45;input.jsx -->
<g id="edge26" class="edge">
<title>src/ChatBar.jsx&#45;&gt;src/components/ui/chat/chat&#45;input.jsx</title>
<path fill="none" stroke="#000000" stroke-width="2" stroke-opacity="0.200000" d="M349.19,-57.06C358.62,-59.42 369.02,-61.92 378.62,-64 389.07,-66.27 400.39,-68.49 410.99,-70.48"/>
<polygon fill="#000000" fill-opacity="0.200000" stroke="#000000" stroke-width="2" stroke-opacity="0.200000" points="410.44,-72.51 416.72,-71.54 411.2,-68.38 410.44,-72.51"/>
</g>
<!-- src/components/ui/button.jsx -->
<g id="node44" class="node">
<title>src/components/ui/button.jsx</title>
<g id="a_node44"><a xlink:href="src/components/ui/button.jsx" xlink:title="button.jsx">
<path fill="#ffff77" stroke="black" d="M592.71,-204.62C592.71,-204.62 550.54,-204.62 550.54,-204.62 547.33,-204.62 544.12,-201.42 544.12,-198.21 544.12,-198.21 544.12,-191.79 544.12,-191.79 544.12,-188.58 547.33,-185.38 550.54,-185.38 550.54,-185.38 592.71,-185.38 592.71,-185.38 595.92,-185.38 599.12,-188.58 599.12,-191.79 599.12,-191.79 599.12,-198.21 599.12,-198.21 599.12,-201.42 595.92,-204.62 592.71,-204.62"/>
<text text-anchor="start" x="552.12" y="-192.07" font-family="Helvetica,sans-Serif" font-size="9.00">button.jsx</text>
</a>
</g>
</g>
<!-- src/components/ui/chat/chat&#45;bubble.jsx&#45;&gt;src/components/ui/button.jsx -->
<g id="edge51" class="edge">
<title>src/components/ui/chat/chat&#45;bubble.jsx&#45;&gt;src/components/ui/button.jsx</title>
<path fill="none" stroke="#000000" stroke-width="2" stroke-opacity="0.200000" d="M494.31,-115.25C499.1,-117.39 503.56,-120.23 507.12,-124 524.67,-142.57 502.61,-161.39 520.12,-180 524.25,-184.39 529.6,-187.51 535.26,-189.73"/>
<polygon fill="#000000" fill-opacity="0.200000" stroke="#000000" stroke-width="2" stroke-opacity="0.200000" points="534.44,-191.67 540.79,-191.46 535.7,-187.66 534.44,-191.67"/>
</g>
<!-- src/components/ui/chat/message&#45;loading.jsx -->
<g id="node47" class="node">
<title>src/components/ui/chat/message&#45;loading.jsx</title>
<g id="a_node47"><a xlink:href="src/components/ui/chat/message-loading.jsx" xlink:title="message&#45;loading.jsx">
<path fill="#ffff77" stroke="black" d="M616.71,-118.62C616.71,-118.62 526.54,-118.62 526.54,-118.62 523.33,-118.62 520.12,-115.42 520.12,-112.21 520.12,-112.21 520.12,-105.79 520.12,-105.79 520.12,-102.58 523.33,-99.38 526.54,-99.38 526.54,-99.38 616.71,-99.38 616.71,-99.38 619.92,-99.38 623.12,-102.58 623.12,-105.79 623.12,-105.79 623.12,-112.21 623.12,-112.21 623.12,-115.42 619.92,-118.62 616.71,-118.62"/>
<text text-anchor="start" x="528.12" y="-106.08" font-family="Helvetica,sans-Serif" font-size="9.00">message&#45;loading.jsx</text>
</a>
</g>
</g>
<!-- src/components/ui/chat/chat&#45;bubble.jsx&#45;&gt;src/components/ui/chat/message&#45;loading.jsx -->
<g id="edge52" class="edge">
<title>src/components/ui/chat/chat&#45;bubble.jsx&#45;&gt;src/components/ui/chat/message&#45;loading.jsx</title>
<path fill="none" stroke="#000000" stroke-width="2" stroke-opacity="0.200000" d="M494.4,-109C499.79,-109 505.42,-109 511.08,-109"/>
<polygon fill="#000000" fill-opacity="0.200000" stroke="#000000" stroke-width="2" stroke-opacity="0.200000" points="510.94,-111.1 516.94,-109 510.94,-106.9 510.94,-111.1"/>
</g>
<!-- src/components/ui/card.jsx -->
<g id="node31" class="node">
<title>src/components/ui/card.jsx</title>
<g id="a_node31"><a xlink:href="src/components/ui/card.jsx" xlink:title="card.jsx">
<path fill="#ffff77" stroke="black" d="M475.46,-235.62C475.46,-235.62 434.29,-235.62 434.29,-235.62 431.08,-235.62 427.88,-232.42 427.88,-229.21 427.88,-229.21 427.88,-222.79 427.88,-222.79 427.88,-219.58 431.08,-216.38 434.29,-216.38 434.29,-216.38 475.46,-216.38 475.46,-216.38 478.67,-216.38 481.88,-219.58 481.88,-222.79 481.88,-222.79 481.88,-229.21 481.88,-229.21 481.88,-232.42 478.67,-235.62 475.46,-235.62"/>
<text text-anchor="start" x="439.12" y="-223.07" font-family="Helvetica,sans-Serif" font-size="9.00">card.jsx</text>
</a>
</g>
</g>
<!-- src/FeaturedProducts.jsx&#45;&gt;src/components/ui/card.jsx -->
<g id="edge27" class="edge">
<title>src/FeaturedProducts.jsx&#45;&gt;src/components/ui/card.jsx</title>
<path fill="none" stroke="#000000" stroke-width="2" stroke-opacity="0.200000" d="M365.26,-315.98C367.23,-314.53 369.04,-312.88 370.62,-311 390.87,-287.11 357.42,-264.04 378.62,-241 388.71,-230.04 404.34,-225.79 418.74,-224.49"/>
<polygon fill="#000000" fill-opacity="0.200000" stroke="#000000" stroke-width="2" stroke-opacity="0.200000" points="418.59,-226.6 424.47,-224.18 418.37,-222.4 418.59,-226.6"/>
</g>
<!-- src/components/ui/carouseltextbook.jsx -->
<g id="node32" class="node">
<title>src/components/ui/carouseltextbook.jsx</title>
<g id="a_node32"><a xlink:href="src/components/ui/carouseltextbook.jsx" xlink:title="carouseltextbook.jsx">
<path fill="#ffff77" stroke="black" d="M498.08,-266.62C498.08,-266.62 411.67,-266.62 411.67,-266.62 408.46,-266.62 405.25,-263.42 405.25,-260.21 405.25,-260.21 405.25,-253.79 405.25,-253.79 405.25,-250.58 408.46,-247.38 411.67,-247.38 411.67,-247.38 498.08,-247.38 498.08,-247.38 501.29,-247.38 504.5,-250.58 504.5,-253.79 504.5,-253.79 504.5,-260.21 504.5,-260.21 504.5,-263.42 501.29,-266.62 498.08,-266.62"/>
<text text-anchor="start" x="413.25" y="-254.07" font-family="Helvetica,sans-Serif" font-size="9.00">carouseltextbook.jsx</text>
</a>
</g>
</g>
<!-- src/FeaturedProducts.jsx&#45;&gt;src/components/ui/carouseltextbook.jsx -->
<g id="edge28" class="edge">
<title>src/FeaturedProducts.jsx&#45;&gt;src/components/ui/carouseltextbook.jsx</title>
<path fill="none" stroke="#000000" stroke-width="2" stroke-opacity="0.200000" d="M364.6,-316.12C366.79,-314.64 368.83,-312.94 370.62,-311 382.65,-298.02 366.08,-284.48 378.62,-272 383.61,-267.05 389.73,-263.5 396.31,-260.98"/>
<polygon fill="#000000" fill-opacity="0.200000" stroke="#000000" stroke-width="2" stroke-opacity="0.200000" points="396.85,-263.02 401.95,-259.23 395.6,-259.01 396.85,-263.02"/>
</g>
<!-- src/SocialMedia.jsx&#45;&gt;src/components/ui/card.jsx -->
<g id="edge49" class="edge">
<title>src/SocialMedia.jsx&#45;&gt;src/components/ui/card.jsx</title>
<path fill="none" stroke="#000000" stroke-width="2" stroke-opacity="0.200000" d="M357.62,-382.64C362.63,-380.39 367.19,-377.28 370.62,-373 389.02,-350.08 359.31,-263.15 378.62,-241 388.49,-229.69 404.24,-225.43 418.78,-224.21"/>
<polygon fill="#000000" fill-opacity="0.200000" stroke="#000000" stroke-width="2" stroke-opacity="0.200000" points="418.7,-226.31 424.6,-223.94 418.51,-222.12 418.7,-226.31"/>
</g>
<!-- src/components/ui/carousel.jsx -->
<g id="node41" class="node">
<title>src/components/ui/carousel.jsx</title>
<g id="a_node41"><a xlink:href="src/components/ui/carousel.jsx" xlink:title="carousel.jsx">
<path fill="#ffff77" stroke="black" d="M481.21,-297.62C481.21,-297.62 428.54,-297.62 428.54,-297.62 425.33,-297.62 422.12,-294.42 422.12,-291.21 422.12,-291.21 422.12,-284.79 422.12,-284.79 422.12,-281.58 425.33,-278.38 428.54,-278.38 428.54,-278.38 481.21,-278.38 481.21,-278.38 484.42,-278.38 487.62,-281.58 487.62,-284.79 487.62,-284.79 487.62,-291.21 487.62,-291.21 487.62,-294.42 484.42,-297.62 481.21,-297.62"/>
<text text-anchor="start" x="430.12" y="-285.07" font-family="Helvetica,sans-Serif" font-size="9.00">carousel.jsx</text>
</a>
</g>
</g>
<!-- src/SocialMedia.jsx&#45;&gt;src/components/ui/carousel.jsx -->
<g id="edge50" class="edge">
<title>src/SocialMedia.jsx&#45;&gt;src/components/ui/carousel.jsx</title>
<path fill="none" stroke="#000000" stroke-width="2" stroke-opacity="0.200000" d="M357.41,-382.47C362.45,-380.24 367.08,-377.19 370.62,-373 390.87,-349.11 357.42,-326.04 378.62,-303 387.42,-293.44 400.43,-288.99 413.17,-287.14"/>
<polygon fill="#000000" fill-opacity="0.200000" stroke="#000000" stroke-width="2" stroke-opacity="0.200000" points="413.13,-289.25 418.88,-286.55 412.7,-285.08 413.13,-289.25"/>
</g>
<!-- src/ListingsPage.jsx&#45;&gt;src/components/ui/card.jsx -->
<g id="edge37" class="edge">
<title>src/ListingsPage.jsx&#45;&gt;src/components/ui/card.jsx</title>
<path fill="none" stroke="#000000" stroke-width="2" stroke-opacity="0.200000" d="M359.85,-178.61C363.81,-180.55 367.5,-182.97 370.62,-186 379,-194.12 369.92,-203.23 378.62,-211 389.47,-220.68 404.73,-224.83 418.69,-226.41"/>
<polygon fill="#000000" fill-opacity="0.200000" stroke="#000000" stroke-width="2" stroke-opacity="0.200000" points="418.44,-228.5 424.59,-226.88 418.77,-224.31 418.44,-228.5"/>
</g>
<!-- src/ProductsPage.jsx&#45;&gt;src/components/ui/table.jsx -->
<g id="edge44" class="edge">
<title>src/ProductsPage.jsx&#45;&gt;src/components/ui/table.jsx</title>
<path fill="none" stroke="#000000" stroke-width="2" stroke-opacity="0.200000" d="M361.54,-199.77C380.02,-198.81 401.31,-197.71 418.79,-196.81"/>
<polygon fill="#000000" fill-opacity="0.200000" stroke="#000000" stroke-width="2" stroke-opacity="0.200000" points="418.64,-198.92 424.53,-196.51 418.43,-194.73 418.64,-198.92"/>
</g>
<!-- src/Schema/index.jsx -->
<g id="node40" class="node">
<title>src/Schema/index.jsx</title>
<g id="a_node40"><a xlink:href="src/Schema/index.jsx" xlink:title="index.jsx">
<path fill="#ccffcc" stroke="black" d="M71.58,-84.62C71.58,-84.62 30.42,-84.62 30.42,-84.62 27.21,-84.62 24,-81.42 24,-78.21 24,-78.21 24,-71.79 24,-71.79 24,-68.58 27.21,-65.38 30.42,-65.38 30.42,-65.38 71.58,-65.38 71.58,-65.38 74.79,-65.38 78,-68.58 78,-71.79 78,-71.79 78,-78.21 78,-78.21 78,-81.42 74.79,-84.62 71.58,-84.62"/>
<text text-anchor="start" x="33.38" y="-72.08" font-family="Helvetica,sans-Serif" font-size="9.00">index.jsx</text>
</a>
</g>
</g>
<!-- src/components/ToastContext.jsx -->
<g id="node42" class="node">
<title>src/components/ToastContext.jsx</title>
<g id="a_node42"><a xlink:href="src/components/ToastContext.jsx" xlink:title="ToastContext.jsx">
<path fill="#ffff77" stroke="black" d="M490.21,-43.62C490.21,-43.62 419.54,-43.62 419.54,-43.62 416.33,-43.62 413.12,-40.42 413.12,-37.21 413.12,-37.21 413.12,-30.79 413.12,-30.79 413.12,-27.58 416.33,-24.38 419.54,-24.38 419.54,-24.38 490.21,-24.38 490.21,-24.38 493.42,-24.38 496.62,-27.58 496.62,-30.79 496.62,-30.79 496.62,-37.21 496.62,-37.21 496.62,-40.42 493.42,-43.62 490.21,-43.62"/>
<text text-anchor="start" x="421.12" y="-31.07" font-family="Helvetica,sans-Serif" font-size="9.00">ToastContext.jsx</text>
</a>
</g>
</g>
<!-- src/components/ui/avatar.jsx -->
<g id="node43" class="node">
<title>src/components/ui/avatar.jsx</title>
<g id="a_node43"><a xlink:href="src/components/ui/avatar.jsx" xlink:title="avatar.jsx">
<path fill="#ccffcc" stroke="black" d="M475.58,-359.62C475.58,-359.62 434.17,-359.62 434.17,-359.62 430.96,-359.62 427.75,-356.42 427.75,-353.21 427.75,-353.21 427.75,-346.79 427.75,-346.79 427.75,-343.58 430.96,-340.38 434.17,-340.38 434.17,-340.38 475.58,-340.38 475.58,-340.38 478.79,-340.38 482,-343.58 482,-346.79 482,-346.79 482,-353.21 482,-353.21 482,-356.42 478.79,-359.62 475.58,-359.62"/>
<text text-anchor="start" x="435.75" y="-347.07" font-family="Helvetica,sans-Serif" font-size="9.00">avatar.jsx</text>
</a>
</g>
</g>
<!-- src/components/ui/calendar.jsx -->
<g id="node45" class="node">
<title>src/components/ui/calendar.jsx</title>
<g id="a_node45"><a xlink:href="src/components/ui/calendar.jsx" xlink:title="calendar.jsx">
<path fill="#ccffcc" stroke="black" d="M481.21,-390.62C481.21,-390.62 428.54,-390.62 428.54,-390.62 425.33,-390.62 422.12,-387.42 422.12,-384.21 422.12,-384.21 422.12,-377.79 422.12,-377.79 422.12,-374.58 425.33,-371.38 428.54,-371.38 428.54,-371.38 481.21,-371.38 481.21,-371.38 484.42,-371.38 487.62,-374.58 487.62,-377.79 487.62,-377.79 487.62,-384.21 487.62,-384.21 487.62,-387.42 484.42,-390.62 481.21,-390.62"/>
<text text-anchor="start" x="430.12" y="-378.07" font-family="Helvetica,sans-Serif" font-size="9.00">calendar.jsx</text>
</a>
</g>
</g>
<!-- src/components/ui/carouselmedia.jsx -->
<g id="node46" class="node">
<title>src/components/ui/carouselmedia.jsx</title>
<g id="a_node46"><a xlink:href="src/components/ui/carouselmedia.jsx" xlink:title="carouselmedia.jsx">
<path fill="#ccffcc" stroke="black" d="M494.33,-421.62C494.33,-421.62 415.42,-421.62 415.42,-421.62 412.21,-421.62 409,-418.42 409,-415.21 409,-415.21 409,-408.79 409,-408.79 409,-405.58 412.21,-402.38 415.42,-402.38 415.42,-402.38 494.33,-402.38 494.33,-402.38 497.54,-402.38 500.75,-405.58 500.75,-408.79 500.75,-408.79 500.75,-415.21 500.75,-415.21 500.75,-418.42 497.54,-421.62 494.33,-421.62"/>
<text text-anchor="start" x="417" y="-409.07" font-family="Helvetica,sans-Serif" font-size="9.00">carouselmedia.jsx</text>
</a>
</g>
</g>
<!-- src/components/ui/command.jsx -->
<g id="node48" class="node">
<title>src/components/ui/command.jsx</title>
<g id="a_node48"><a xlink:href="src/components/ui/command.jsx" xlink:title="command.jsx">
<path fill="#ccffcc" stroke="black" d="M484.21,-452.62C484.21,-452.62 425.54,-452.62 425.54,-452.62 422.33,-452.62 419.12,-449.42 419.12,-446.21 419.12,-446.21 419.12,-439.79 419.12,-439.79 419.12,-436.58 422.33,-433.38 425.54,-433.38 425.54,-433.38 484.21,-433.38 484.21,-433.38 487.42,-433.38 490.62,-436.58 490.62,-439.79 490.62,-439.79 490.62,-446.21 490.62,-446.21 490.62,-449.42 487.42,-452.62 484.21,-452.62"/>
<text text-anchor="start" x="427.12" y="-440.07" font-family="Helvetica,sans-Serif" font-size="9.00">command.jsx</text>
</a>
</g>
</g>
<!-- src/components/ui/dialog.jsx -->
<g id="node49" class="node">
<title>src/components/ui/dialog.jsx</title>
<g id="a_node49"><a xlink:href="src/components/ui/dialog.jsx" xlink:title="dialog.jsx">
<path fill="#ccffcc" stroke="black" d="M475.96,-483.62C475.96,-483.62 433.79,-483.62 433.79,-483.62 430.58,-483.62 427.38,-480.42 427.38,-477.21 427.38,-477.21 427.38,-470.79 427.38,-470.79 427.38,-467.58 430.58,-464.38 433.79,-464.38 433.79,-464.38 475.96,-464.38 475.96,-464.38 479.17,-464.38 482.38,-467.58 482.38,-470.79 482.38,-470.79 482.38,-477.21 482.38,-477.21 482.38,-480.42 479.17,-483.62 475.96,-483.62"/>
<text text-anchor="start" x="435.38" y="-471.07" font-family="Helvetica,sans-Serif" font-size="9.00">dialog.jsx</text>
</a>
</g>
</g>
<!-- src/components/ui/dropdown&#45;menu.jsx -->
<g id="node50" class="node">
<title>src/components/ui/dropdown&#45;menu.jsx</title>
<g id="a_node50"><a xlink:href="src/components/ui/dropdown-menu.jsx" xlink:title="dropdown&#45;menu.jsx">
<path fill="#ccffcc" stroke="black" d="M497.33,-514.62C497.33,-514.62 412.42,-514.62 412.42,-514.62 409.21,-514.62 406,-511.42 406,-508.21 406,-508.21 406,-501.79 406,-501.79 406,-498.58 409.21,-495.38 412.42,-495.38 412.42,-495.38 497.33,-495.38 497.33,-495.38 500.54,-495.38 503.75,-498.58 503.75,-501.79 503.75,-501.79 503.75,-508.21 503.75,-508.21 503.75,-511.42 500.54,-514.62 497.33,-514.62"/>
<text text-anchor="start" x="414" y="-502.07" font-family="Helvetica,sans-Serif" font-size="9.00">dropdown&#45;menu.jsx</text>
</a>
</g>
</g>
<!-- src/components/ui/form.jsx -->
<g id="node51" class="node">
<title>src/components/ui/form.jsx</title>
<g id="a_node51"><a xlink:href="src/components/ui/form.jsx" xlink:title="form.jsx">
<path fill="#ccffcc" stroke="black" d="M475.46,-545.62C475.46,-545.62 434.29,-545.62 434.29,-545.62 431.08,-545.62 427.88,-542.42 427.88,-539.21 427.88,-539.21 427.88,-532.79 427.88,-532.79 427.88,-529.58 431.08,-526.38 434.29,-526.38 434.29,-526.38 475.46,-526.38 475.46,-526.38 478.67,-526.38 481.88,-529.58 481.88,-532.79 481.88,-532.79 481.88,-539.21 481.88,-539.21 481.88,-542.42 478.67,-545.62 475.46,-545.62"/>
<text text-anchor="start" x="438.75" y="-533.08" font-family="Helvetica,sans-Serif" font-size="9.00">form.jsx</text>
</a>
</g>
</g>
<!-- src/components/ui/input.jsx -->
<g id="node52" class="node">
<title>src/components/ui/input.jsx</title>
<g id="a_node52"><a xlink:href="src/components/ui/input.jsx" xlink:title="input.jsx">
<path fill="#ccffcc" stroke="black" d="M475.46,-576.62C475.46,-576.62 434.29,-576.62 434.29,-576.62 431.08,-576.62 427.88,-573.42 427.88,-570.21 427.88,-570.21 427.88,-563.79 427.88,-563.79 427.88,-560.58 431.08,-557.38 434.29,-557.38 434.29,-557.38 475.46,-557.38 475.46,-557.38 478.67,-557.38 481.88,-560.58 481.88,-563.79 481.88,-563.79 481.88,-570.21 481.88,-570.21 481.88,-573.42 478.67,-576.62 475.46,-576.62"/>
<text text-anchor="start" x="438" y="-564.08" font-family="Helvetica,sans-Serif" font-size="9.00">input.jsx</text>
</a>
</g>
</g>
<!-- src/components/ui/label.jsx -->
<g id="node53" class="node">
<title>src/components/ui/label.jsx</title>
<g id="a_node53"><a xlink:href="src/components/ui/label.jsx" xlink:title="label.jsx">
<path fill="#ccffcc" stroke="black" d="M475.46,-607.62C475.46,-607.62 434.29,-607.62 434.29,-607.62 431.08,-607.62 427.88,-604.42 427.88,-601.21 427.88,-601.21 427.88,-594.79 427.88,-594.79 427.88,-591.58 431.08,-588.38 434.29,-588.38 434.29,-588.38 475.46,-588.38 475.46,-588.38 478.67,-588.38 481.88,-591.58 481.88,-594.79 481.88,-594.79 481.88,-601.21 481.88,-601.21 481.88,-604.42 478.67,-607.62 475.46,-607.62"/>
<text text-anchor="start" x="438" y="-595.08" font-family="Helvetica,sans-Serif" font-size="9.00">label.jsx</text>
</a>
</g>
</g>
<!-- src/components/ui/login&#45;form.jsx -->
<g id="node54" class="node">
<title>src/components/ui/login&#45;form.jsx</title>
<g id="a_node54"><a xlink:href="src/components/ui/login-form.jsx" xlink:title="login&#45;form.jsx">
<path fill="#ccffcc" stroke="black" d="M484.21,-638.62C484.21,-638.62 425.54,-638.62 425.54,-638.62 422.33,-638.62 419.12,-635.42 419.12,-632.21 419.12,-632.21 419.12,-625.79 419.12,-625.79 419.12,-622.58 422.33,-619.38 425.54,-619.38 425.54,-619.38 484.21,-619.38 484.21,-619.38 487.42,-619.38 490.62,-622.58 490.62,-625.79 490.62,-625.79 490.62,-632.21 490.62,-632.21 490.62,-635.42 487.42,-638.62 484.21,-638.62"/>
<text text-anchor="start" x="427.12" y="-626.08" font-family="Helvetica,sans-Serif" font-size="9.00">login&#45;form.jsx</text>
</a>
</g>
</g>
<!-- src/components/ui/textarea.jsx -->
<g id="node55" class="node">
<title>src/components/ui/textarea.jsx</title>
<g id="a_node55"><a xlink:href="src/components/ui/textarea.jsx" xlink:title="textarea.jsx">
<path fill="#ccffcc" stroke="black" d="M479.33,-669.62C479.33,-669.62 430.42,-669.62 430.42,-669.62 427.21,-669.62 424,-666.42 424,-663.21 424,-663.21 424,-656.79 424,-656.79 424,-653.58 427.21,-650.38 430.42,-650.38 430.42,-650.38 479.33,-650.38 479.33,-650.38 482.54,-650.38 485.75,-653.58 485.75,-656.79 485.75,-656.79 485.75,-663.21 485.75,-663.21 485.75,-666.42 482.54,-669.62 479.33,-669.62"/>
<text text-anchor="start" x="432" y="-657.08" font-family="Helvetica,sans-Serif" font-size="9.00">textarea.jsx</text>
</a>
</g>
</g>
<!-- src/index.css -->
<g id="node56" class="node">
<title>src/index.css</title>
<g id="a_node56"><a xlink:href="src/index.css" xlink:title="index.css">
<path fill="#ffffcc" stroke="black" d="M146.46,-265.62C146.46,-265.62 104.29,-265.62 104.29,-265.62 101.08,-265.62 97.88,-262.42 97.88,-259.21 97.88,-259.21 97.88,-252.79 97.88,-252.79 97.88,-249.58 101.08,-246.38 104.29,-246.38 104.29,-246.38 146.46,-246.38 146.46,-246.38 149.67,-246.38 152.88,-249.58 152.88,-252.79 152.88,-252.79 152.88,-259.21 152.88,-259.21 152.88,-262.42 149.67,-265.62 146.46,-265.62"/>
<text text-anchor="start" x="105.88" y="-253.07" font-family="Helvetica,sans-Serif" font-size="9.00">index.css</text>
</a>
</g>
</g>
<!-- src/lib/utils.js -->
<g id="node57" class="node">
<title>src/lib/utils.js</title>
<g id="a_node57"><a xlink:href="src/lib/utils.js" xlink:title="utils.js">
<path fill="#ccffcc" stroke="black" d="M71.58,-168.62C71.58,-168.62 30.42,-168.62 30.42,-168.62 27.21,-168.62 24,-165.42 24,-162.21 24,-162.21 24,-155.79 24,-155.79 24,-152.58 27.21,-149.38 30.42,-149.38 30.42,-149.38 71.58,-149.38 71.58,-149.38 74.79,-149.38 78,-152.58 78,-155.79 78,-155.79 78,-162.21 78,-162.21 78,-165.42 74.79,-168.62 71.58,-168.62"/>
<text text-anchor="start" x="37.5" y="-156.07" font-family="Helvetica,sans-Serif" font-size="9.00">utils.js</text>
</a>
</g>
</g>
<!-- src/main.jsx -->
<g id="node58" class="node">
<title>src/main.jsx</title>
<g id="a_node58"><a xlink:href="src/main.jsx" xlink:title="main.jsx">
<path fill="#ffff77" stroke="black" d="M71.58,-234.62C71.58,-234.62 30.42,-234.62 30.42,-234.62 27.21,-234.62 24,-231.42 24,-228.21 24,-228.21 24,-221.79 24,-221.79 24,-218.58 27.21,-215.38 30.42,-215.38 30.42,-215.38 71.58,-215.38 71.58,-215.38 74.79,-215.38 78,-218.58 78,-221.79 78,-221.79 78,-228.21 78,-228.21 78,-231.42 74.79,-234.62 71.58,-234.62"/>
<text text-anchor="start" x="33.75" y="-222.07" font-family="Helvetica,sans-Serif" font-size="9.00">main.jsx</text>
</a>
</g>
</g>
<!-- src/main.jsx&#45;&gt;src/App.jsx -->
<g id="edge53" class="edge">
<title>src/main.jsx&#45;&gt;src/App.jsx</title>
<path fill="none" stroke="#000000" stroke-width="2" stroke-opacity="0.200000" d="M78.13,-225C81.67,-225 85.35,-225 89.03,-225"/>
<polygon fill="#000000" fill-opacity="0.200000" stroke="#000000" stroke-width="2" stroke-opacity="0.200000" points="89.01,-227.1 95.01,-225 89.01,-222.9 89.01,-227.1"/>
</g>
<!-- src/main.jsx&#45;&gt;src/components/ToastContext.jsx -->
<g id="edge54" class="edge">
<title>src/main.jsx&#45;&gt;src/components/ToastContext.jsx</title>
<path fill="none" stroke="#000000" stroke-width="2" stroke-opacity="0.200000" d="M67.62,-215C73.8,-210.58 80.68,-205.01 86,-199 132.46,-146.51 111.12,-106.77 165.88,-63 233.83,-8.68 341.57,-14.56 404.22,-24.07"/>
<polygon fill="#000000" fill-opacity="0.200000" stroke="#000000" stroke-width="2" stroke-opacity="0.200000" points="403.5,-26.08 409.76,-24.95 404.16,-21.93 403.5,-26.08"/>
</g>
<!-- src/main.jsx&#45;&gt;src/index.css -->
<g id="edge55" class="edge">
<title>src/main.jsx&#45;&gt;src/index.css</title>
<path fill="none" stroke="#000000" stroke-width="2" stroke-opacity="0.200000" d="M75.3,-234.98C80.98,-237.41 87.15,-240.06 93.14,-242.62"/>
<polygon fill="#000000" fill-opacity="0.200000" stroke="#000000" stroke-width="2" stroke-opacity="0.200000" points="92,-244.42 98.34,-244.85 93.65,-240.55 92,-244.42"/>
</g>
<!-- src/useFetch.jsx -->
<g id="node59" class="node">
<title>src/useFetch.jsx</title>
<g id="a_node59"><a xlink:href="src/useFetch.jsx" xlink:title="useFetch.jsx">
<path fill="#ccffcc" stroke="black" d="M78.46,-620.62C78.46,-620.62 23.54,-620.62 23.54,-620.62 20.33,-620.62 17.12,-617.42 17.12,-614.21 17.12,-614.21 17.12,-607.79 17.12,-607.79 17.12,-604.58 20.33,-601.38 23.54,-601.38 23.54,-601.38 78.46,-601.38 78.46,-601.38 81.67,-601.38 84.88,-604.58 84.88,-607.79 84.88,-607.79 84.88,-614.21 84.88,-614.21 84.88,-617.42 81.67,-620.62 78.46,-620.62"/>
<text text-anchor="start" x="25.12" y="-608.08" font-family="Helvetica,sans-Serif" font-size="9.00">useFetch.jsx</text>
</a>
</g>
</g>
</g>
</svg>
